<svg width="268" height="255" viewBox="0 0 268 255" fill="none" xmlns="http://www.w3.org/2000/svg">
<path d="M241.071 91.1428C244.792 91.1428 248.279 91.8532 251.535 93.2742C254.79 94.6951 257.626 96.637 260.045 99.1C262.463 101.563 264.369 104.452 265.765 107.768C267.16 111.083 267.857 114.635 267.857 118.425C267.857 122.214 267.16 125.766 265.765 129.081C264.369 132.397 262.463 135.286 260.045 137.749C257.626 140.212 254.79 142.154 251.535 143.575C248.279 144.996 244.792 145.706 241.071 145.706H196.429C194.01 145.706 191.918 144.806 190.151 143.007L169.643 122.261L155.413 136.612L184.849 166.594C186.616 168.394 187.5 170.525 187.5 172.988V227.552C187.5 231.341 186.802 234.893 185.407 238.208C184.012 241.524 182.106 244.413 179.688 246.876C177.269 249.339 174.433 251.281 171.177 252.702C167.922 254.123 164.435 254.833 160.714 254.833C156.994 254.833 153.506 254.123 150.251 252.702C146.996 251.281 144.159 249.339 141.741 246.876C139.323 244.413 137.416 241.524 136.021 238.208C134.626 234.893 133.929 231.341 133.929 227.552V195.012L116.071 176.825L95.5636 197.57C93.7965 199.37 91.7039 200.27 89.2857 200.27H26.7857C23.0655 200.27 19.5778 199.559 16.3225 198.138C13.0673 196.717 10.2307 194.776 7.8125 192.313C5.39435 189.85 3.48772 186.96 2.09263 183.645C0.697545 180.329 0 176.777 0 172.988C0 169.199 0.697545 165.647 2.09263 162.331C3.48772 159.016 5.39435 156.126 7.8125 153.663C10.2307 151.201 13.0673 149.259 16.3225 147.838C19.5778 146.417 23.0655 145.706 26.7857 145.706H67.6618L78.8225 134.481C73.8932 132.302 69.9405 128.939 66.9643 124.392C63.9881 119.845 62.5 114.825 62.5 109.331V54.7671C62.5 52.2094 62.965 49.8412 63.8951 47.6625C64.8251 45.4837 66.0807 43.5892 67.6618 41.9788C69.2429 40.3684 71.1496 39.0422 73.3817 38.0002C75.6138 36.9582 77.939 36.4846 80.3571 36.5793H151.786C151.786 31.5587 152.716 26.8696 154.576 22.5121C156.436 18.1546 158.994 14.2708 162.249 10.8605C165.504 7.45033 169.271 4.8453 173.549 3.04546C177.827 1.24562 182.478 0.298342 187.5 0.203613C192.429 0.203613 197.033 1.1509 201.311 3.04546C205.59 4.94003 209.403 7.54506 212.751 10.8605C216.099 14.176 218.657 18.0125 220.424 22.37C222.191 26.7275 223.121 31.4639 223.214 36.5793C223.214 40.5579 222.61 44.347 221.401 47.9467C220.192 51.5463 218.517 54.9092 216.378 58.0352C214.239 61.1613 211.635 63.8137 208.566 65.9924C205.497 68.1712 202.102 69.9236 198.382 71.2498L218.052 91.1428H241.071ZM187.5 18.3914C184.989 18.3914 182.664 18.8651 180.525 19.8124C178.385 20.7597 176.525 22.0385 174.944 23.6489C173.363 25.2592 172.061 27.2012 171.038 29.4747C170.015 31.7481 169.55 34.1163 169.643 36.5793C169.643 39.1369 170.108 41.5051 171.038 43.6839C171.968 45.8626 173.224 47.7572 174.805 49.3676C176.386 50.978 178.292 52.3042 180.525 53.3462C182.757 54.3882 185.082 54.8618 187.5 54.7671C189.732 54.7671 191.918 54.3408 194.057 53.4883C196.196 52.6357 198.103 51.4043 199.777 49.7939C201.451 48.1835 202.799 46.3837 203.823 44.3944C204.846 42.4051 205.357 40.179 205.357 37.716C205.357 35.0636 204.939 32.5533 204.102 30.1851C203.265 27.8169 202.102 25.7803 200.614 24.0751C199.126 22.37 197.219 20.9965 194.894 19.9545C192.569 18.9125 190.104 18.3914 187.5 18.3914ZM241.071 127.518C243.49 127.518 245.582 126.619 247.349 124.819C249.116 123.019 250 120.887 250 118.425C250 115.393 249.163 113.214 247.489 111.888C245.815 110.562 243.676 109.71 241.071 109.331C238.467 108.952 235.538 108.857 232.282 109.046C229.027 109.236 225.865 109.425 222.796 109.615C219.727 109.804 216.89 109.757 214.286 109.473C211.682 109.189 209.589 108.241 208.008 106.631L156.948 54.7671H80.3571V109.331C80.3571 111.794 81.2407 113.925 83.0078 115.725C84.7749 117.525 86.8676 118.425 89.2857 118.425C92.7269 118.425 95.0521 117.335 96.2612 115.156C97.4702 112.978 98.2143 110.136 98.4933 106.631C98.7723 103.126 98.6793 99.4789 98.2143 95.6897C97.7493 91.9006 97.6562 88.2536 97.9353 84.7486C98.2143 81.2437 98.9118 78.4492 100.028 76.3652C101.144 74.2811 103.516 73.1444 107.143 72.9549H133.929C136.347 72.9549 138.439 73.8549 140.206 75.6547C141.974 77.4545 142.857 79.5859 142.857 82.0489C142.857 84.5118 141.974 86.6432 140.206 88.443C138.439 90.2429 136.347 91.1428 133.929 91.1428H116.071V118.425C116.071 120.887 115.188 123.019 113.421 124.819L77.7065 161.194C75.9394 162.994 73.8467 163.894 71.4286 163.894H26.7857C24.3676 163.894 22.2749 164.794 20.5078 166.594C18.7407 168.394 17.8571 170.525 17.8571 172.988C17.8571 175.451 18.7407 177.582 20.5078 179.382C22.2749 181.182 24.3676 182.082 26.7857 182.082H85.519L109.794 157.5C111.561 155.7 113.653 154.8 116.071 154.8C118.49 154.8 120.582 155.7 122.349 157.5L149.135 184.782C150.902 186.582 151.786 188.713 151.786 191.176V227.552C151.786 230.014 152.669 232.146 154.436 233.946C156.204 235.746 158.296 236.645 160.714 236.645C163.132 236.645 165.225 235.746 166.992 233.946C168.759 232.146 169.643 230.014 169.643 227.552V176.825L136.579 143.007C134.812 141.207 133.929 139.075 133.929 136.612C133.929 134.149 134.812 132.018 136.579 130.218L163.365 102.936C165.132 101.137 167.225 100.237 169.643 100.237C172.061 100.237 174.154 101.137 175.921 102.936L200.195 127.518H241.071Z" fill="#00A7E1"/>
</svg>
