<svg width="250" height="255" viewBox="0 0 250 255" fill="none" xmlns="http://www.w3.org/2000/svg">
<path d="M125 0C100.277 0 76.1099 7.46688 55.5538 21.4564C34.9976 35.4459 18.9761 55.3298 9.51511 78.5935C0.0541606 101.857 -2.42126 127.456 2.4019 152.153C7.22505 176.849 19.1301 199.535 36.6117 217.34C54.0933 235.145 76.3661 247.271 100.614 252.183C124.861 257.096 149.995 254.574 172.835 244.938C195.676 235.302 215.199 218.984 228.934 198.047C242.669 177.11 250 152.495 250 127.315C249.965 93.5598 236.784 61.1974 213.35 37.329C189.915 13.4606 158.141 0.0356459 125 0ZM43.2693 58.9688C56.7645 75.6083 64.9907 96.0233 66.863 117.521H19.6755C21.5729 96.0296 29.7962 75.6218 43.2693 58.9688ZM134.615 117.521V20.0398C156.172 22.0283 176.602 30.7358 193.125 44.9764C176.037 65.3723 165.773 90.7826 163.822 117.521H134.615ZM115.385 117.521H86.1779C84.2269 90.7826 73.963 65.3723 56.875 44.9764C73.3977 30.7358 93.8283 22.0283 115.385 20.0398V117.521ZM66.863 137.108C64.9907 158.606 56.7645 179.021 43.2693 195.661C29.7962 179.008 21.5729 158.6 19.6755 137.108H66.863ZM86.1779 137.108H115.385V234.59C93.8283 232.601 73.3977 223.894 56.875 209.653C73.9608 189.256 84.2245 163.846 86.1779 137.108ZM134.615 137.108H163.822C165.776 163.846 176.039 189.256 193.125 209.653C176.602 223.894 156.172 232.601 134.615 234.59V137.108ZM183.137 137.108H230.325C228.427 158.6 220.204 179.008 206.731 195.661C193.236 179.021 185.009 158.606 183.137 137.108ZM183.137 117.521C185.009 96.0233 193.236 75.6083 206.731 58.9688C220.204 75.6218 228.427 96.0296 230.325 117.521H183.137Z" fill="#00A7E1"/>
</svg>
