<svg width="245" height="250" viewBox="0 0 245 250" fill="none" xmlns="http://www.w3.org/2000/svg">
<g clip-path="url(#clip0_1_726)">
<path d="M153.077 171.875C157.303 171.875 161.25 172.689 164.917 174.316C168.584 175.944 171.853 178.182 174.724 181.03C177.594 183.879 179.786 187.174 181.301 190.918C182.816 194.661 183.613 198.73 183.693 203.125C183.693 207.438 182.896 211.466 181.301 215.21C179.706 218.953 177.514 222.29 174.724 225.22C171.933 228.149 168.704 230.387 165.037 231.934C161.369 233.48 157.383 234.294 153.077 234.375C148.852 234.375 144.905 233.561 141.238 231.934C137.57 230.306 134.302 228.068 131.431 225.22C128.561 222.371 126.369 219.076 124.854 215.332C123.339 211.589 122.542 207.52 122.462 203.125C122.462 198.812 123.259 194.784 124.854 191.04C126.448 187.297 128.641 183.96 131.431 181.03C134.222 178.101 137.451 175.863 141.118 174.316C144.786 172.77 148.772 171.956 153.077 171.875ZM153.077 218.75C155.23 218.75 157.223 218.343 159.057 217.529C160.891 216.715 162.485 215.617 163.841 214.233C165.196 212.85 166.312 211.182 167.189 209.229C168.066 207.275 168.465 205.241 168.385 203.125C168.385 200.928 167.987 198.893 167.189 197.021C166.392 195.15 165.316 193.522 163.96 192.139C162.605 190.755 160.97 189.616 159.057 188.721C157.144 187.826 155.15 187.419 153.077 187.5C150.925 187.5 148.932 187.907 147.098 188.721C145.264 189.535 143.67 190.633 142.314 192.017C140.959 193.4 139.843 195.068 138.966 197.021C138.089 198.975 137.69 201.009 137.77 203.125C137.77 205.322 138.168 207.357 138.966 209.229C139.763 211.1 140.839 212.728 142.195 214.111C143.55 215.495 145.184 216.634 147.098 217.529C149.011 218.424 151.004 218.831 153.077 218.75ZM237.27 0C239.343 0 241.137 0.773112 242.652 2.31934C244.166 3.86556 244.924 5.69661 244.924 7.8125C244.924 9.92839 244.166 11.7594 242.652 13.3057L177.355 80.0781C179.427 83.252 180.982 86.6699 182.019 90.332C183.055 93.9941 183.613 97.7376 183.693 101.562V104.858L41.4983 250L0 207.642L142.195 62.5C146.819 62.5 151.004 62.9069 154.752 63.7207C158.499 64.5345 162.406 66.2842 166.472 68.9697L231.888 2.31934C233.403 0.773112 235.197 0 237.27 0ZM168.146 98.5107C167.827 95.9066 167.11 93.4652 165.993 91.1865C164.877 88.9079 163.442 86.8734 161.688 85.083C159.934 83.2926 157.941 81.8278 155.708 80.6885C153.476 79.5492 151.044 78.776 148.413 78.3691L21.6461 207.642L41.4983 227.905L168.146 98.5107Z" fill="#00A7E1"/>
</g>
<defs>
<clipPath id="clip0_1_726">
<rect width="244.924" height="250" fill="white"/>
</clipPath>
</defs>
</svg>
