<svg width="250" height="250" viewBox="0 0 250 250" fill="none" xmlns="http://www.w3.org/2000/svg">
<g clip-path="url(#clip0_1_731)">
<path d="M-2.58932e-05 124.594C0.108074 55.7999 56.3202 -0.396516 125.126 -4.98351e-06C196.598 0.414529 250.757 58.99 250 126.811C249.261 194.561 193.121 250.072 124.243 249.982C55.5455 249.91 -0.108126 193.732 -2.58932e-05 124.594ZM210.183 165.201C208.886 163.128 208.255 161.632 207.21 160.515C199.283 151.936 191.247 143.465 183.338 134.886C181.338 132.723 179.374 132.308 176.564 133.3C166.835 136.742 157.034 139.968 147.251 143.23C144.296 144.222 142.206 145.862 140.819 148.836C135.324 160.461 129.648 171.996 123.901 183.494C122.55 186.198 122.784 188.144 124.982 190.253C131.702 196.669 138.17 203.32 144.981 209.628C146.224 210.781 148.836 211.538 150.404 211.088C162.619 207.627 174.78 203.969 186.833 200.022C190.581 198.796 195.716 197.462 197.265 194.579C202.31 185.171 205.985 175.023 210.165 165.201H210.183ZM96.5336 185.603V184.99C101.614 184.99 106.713 184.864 111.794 185.044C114.784 185.152 116.388 183.855 117.631 181.241C123.288 169.526 129.036 157.865 134.855 146.222C136.206 143.501 136.134 141.392 134.17 138.869C127.775 130.596 121.523 122.179 115.451 113.672C113.74 111.275 111.902 110.23 109.073 110.699C97.5785 112.591 86.0658 114.393 74.5892 116.466C73.1298 116.736 71.4723 118.268 70.6976 119.656C65.3466 129.335 60.0677 139.067 55.1311 148.962C54.2303 150.764 54.1763 153.936 55.1852 155.576C60.2479 163.669 65.8511 171.419 71.184 179.331C75.3999 185.585 81.0392 187.928 88.4801 186.288C91.0925 185.711 93.8311 185.801 96.5336 185.585V185.603ZM137.612 69.5155C137.359 68.362 137.323 67.7312 137.089 67.2086C132.783 57.2237 128.549 47.2028 123.991 37.3261C123.451 36.1726 121.036 35.1813 119.577 35.2895C112.298 35.8482 105.001 36.497 97.8128 37.7046C93.759 38.3894 89.1287 39.2185 86.1019 41.6516C74.409 51.0958 64.4998 62.2702 57.5814 75.7876C56.7887 77.3376 56.7707 79.8969 57.4913 81.501C61.3829 90.062 65.6709 98.4428 69.7067 106.95C70.8958 109.455 72.4632 109.888 75.0937 109.437C86.7144 107.472 98.3893 105.832 110.01 103.832C111.704 103.543 113.577 102.228 114.658 100.84C121.811 91.648 128.801 82.312 135.774 72.976C136.639 71.8225 137.143 70.4347 137.612 69.5336V69.5155ZM184.545 106.77H184.996C184.996 112.465 184.833 118.142 185.086 123.819C185.158 125.586 185.969 127.676 187.14 128.974C195.391 138.04 203.913 146.871 212.165 155.955C214.345 158.352 216.255 158.316 218.146 156.225C225.155 148.511 232.236 140.833 238.866 132.777C240.469 130.812 241.352 127.406 241.046 124.847C239.622 113.312 238.163 101.741 235.659 90.4044C234.452 84.9434 232.001 78.8516 228.128 75.1208C223.858 71.0115 217.39 69.0289 211.642 66.7039C210.057 66.0551 207.156 66.8301 205.715 68.0196C199.265 73.3545 193.031 78.9597 186.977 84.7271C185.644 85.9887 184.761 88.2777 184.653 90.1341C184.347 95.6492 184.545 101.2 184.545 106.751V106.77ZM205.048 57.0795C203.211 50.7173 201.625 44.4993 199.553 38.4615C198.832 36.3528 197.283 34.0278 195.445 32.9104C186.401 27.4133 177.194 22.1866 167.898 17.1581C166.114 16.2029 163.394 16.0046 161.412 16.5633C151.142 19.429 141.341 23.3941 132.585 29.6842C130.045 31.5046 129.648 33.0365 131.018 36.0104C135.486 45.779 139.467 55.7818 143.827 65.6045C144.476 67.0644 145.881 68.6504 147.305 69.2091C157.214 73.012 167.177 76.6888 177.23 80.0591C178.852 80.5998 181.536 80.1132 182.834 79.0318C189.392 73.5888 195.716 67.8574 201.967 62.0719C203.265 60.8824 203.913 58.99 205.084 57.0795H205.048ZM73.0758 197.697C73.3641 197.57 73.6523 197.462 73.9406 197.336C72.9857 194.561 72.5893 191.352 70.9498 189.064C64.8782 180.593 57.4373 172.969 52.3385 163.975C48.1587 156.64 43.168 153.63 35.0965 152.585C22.8272 150.998 23.9262 148.187 20.0346 162.822C18.4671 168.733 18.5572 173.978 22.0164 179.025C27.1692 186.504 32.5382 193.858 37.4748 201.482C44.6454 212.566 56.032 213.9 67.5627 215.125C69.9229 215.377 71.13 214.44 71.3462 211.935C71.7786 207.177 72.4632 202.455 73.0578 197.697H73.0758ZM15.3682 86.4393C15.5304 91.4137 21.3138 94.748 24.7009 92.5492C32.2139 87.6649 39.7088 82.7446 47.1317 77.6981C48.555 76.7248 49.9964 75.4091 50.7711 73.9132C56.7166 62.3423 64.7521 52.3755 73.9766 43.3278C81.868 35.5778 81.922 35.6139 75.3639 26.4761C72.9857 23.1598 69.9649 22.5831 66.3015 24.7459C44.0869 37.8848 27.998 56.4127 17.7284 80.0411C16.7195 82.3481 15.9808 84.7632 15.3502 86.4393H15.3682ZM124.225 235.401C127.648 238.844 130.639 241.673 135.378 240.718C143.845 239.024 152.475 237.834 160.727 235.401C176.258 230.787 189.914 222.533 201.985 211.773C203.048 210.836 204.183 208.943 203.949 207.772C203.193 204.023 199.067 202.473 195.283 203.807C185.446 207.285 175.753 211.611 165.61 213.773C149.845 217.144 137.341 225.921 124.189 235.401H124.225ZM13.0441 96.9649C6.28781 108.482 7.98138 151.377 15.3863 158.658C16.4673 154.171 19.0977 149.611 18.1608 145.952C14.5395 131.84 14.5755 117.872 17.0798 103.724C17.7104 100.155 16.4312 98.0102 13.0441 96.9469V96.9649ZM116.586 239.294C98.6055 233.202 82.0842 222.731 61.8514 220.983C69.4004 230.571 105.47 242.484 116.586 239.294Z" fill="#00A7E1"/>
</g>
<defs>
<clipPath id="clip0_1_731">
<rect width="250" height="250" fill="white"/>
</clipPath>
</defs>
</svg>
