<svg width="748" height="1047" viewBox="0 0 748 1047" fill="none" xmlns="http://www.w3.org/2000/svg">
<g opacity="0.12" clip-path="url(#clip0_1_717)">
<path d="M2.27697e-06 521.802C0.452726 233.69 235.869 -1.66052 524.028 6.69584e-05C823.354 1.73614 1050.17 247.05 1047 531.086C1043.91 814.82 808.792 1047.3 520.331 1046.92C232.625 1046.62 -0.452722 811.348 2.27697e-06 521.802ZM880.247 691.861C874.814 683.181 872.173 676.916 867.797 672.236C834.597 636.307 800.944 600.831 767.82 564.901C759.445 555.844 751.22 554.108 739.449 558.259C698.704 572.676 657.657 586.187 616.686 599.849C604.311 604.001 595.559 610.87 589.749 623.324C566.735 672.009 542.967 720.317 518.897 768.474C513.238 779.797 514.219 787.948 523.425 796.78C551.569 823.651 578.657 851.504 607.178 877.922C612.385 882.753 623.326 885.923 629.89 884.036C681.048 869.544 731.979 854.221 782.458 837.691C798.153 832.558 819.657 826.972 826.146 814.895C847.273 775.494 862.666 732.998 880.171 691.861H880.247ZM404.283 777.306V774.739C425.561 774.739 446.914 774.211 468.192 774.966C480.718 775.419 487.433 769.984 492.639 759.039C516.332 709.976 540.402 661.14 564.773 612.379C570.432 600.982 570.131 592.15 561.906 581.583C535.12 546.937 508.937 511.687 483.509 476.06C476.341 466.021 468.645 461.643 456.799 463.606C408.659 471.531 360.444 479.079 312.38 487.76C306.268 488.892 299.326 495.308 296.082 501.12C273.672 541.653 251.564 582.413 230.889 623.852C227.117 631.401 226.89 644.685 231.116 651.554C252.318 685.445 275.784 717.902 298.119 751.038C315.775 777.23 339.392 787.043 370.555 780.174C381.496 777.759 392.965 778.136 404.283 777.23V777.306ZM576.318 291.131C575.261 286.3 575.11 283.658 574.13 281.47C556.096 239.653 538.364 197.685 519.275 156.322C517.011 151.491 506.9 147.339 500.788 147.792C470.305 150.132 439.746 152.85 409.64 157.907C392.663 160.775 373.271 164.247 360.595 174.437C311.625 213.989 270.125 260.788 241.151 317.399C237.831 323.89 237.756 334.608 240.774 341.326C257.072 377.18 275.03 412.278 291.932 447.906C296.912 458.397 303.476 460.209 314.492 458.322C363.16 450.095 412.054 443.226 460.722 434.847C467.815 433.64 475.662 428.13 480.189 422.317C510.145 383.822 539.421 344.723 568.621 305.624C572.243 300.793 574.356 294.981 576.318 291.207V291.131ZM772.876 447.151H774.762C774.762 471.003 774.083 494.779 775.139 518.556C775.441 525.953 778.836 534.709 783.741 540.144C818.299 578.111 853.989 615.097 888.547 653.139C897.676 663.178 905.675 663.027 913.597 654.271C942.949 621.965 972.602 589.81 1000.37 556.07C1007.08 547.843 1010.78 533.577 1009.5 522.858C1003.54 474.55 997.427 426.092 986.939 378.614C981.883 355.743 971.621 330.23 955.399 314.606C937.516 297.396 910.428 289.093 886.358 279.356C879.718 276.639 867.57 279.884 861.534 284.866C834.521 307.209 808.414 330.683 783.062 354.837C777.478 360.121 773.781 369.707 773.328 377.482C772.045 400.579 772.876 423.827 772.876 447.075V447.151ZM858.742 239.049C851.046 212.404 844.406 186.363 835.729 161.077C832.711 152.246 826.222 142.509 818.525 137.829C780.647 114.807 742.09 92.9174 703.156 71.8582C695.686 67.8577 684.292 67.0274 675.993 69.3673C632.984 81.3688 591.937 97.9747 555.266 124.318C544.627 131.941 542.967 138.357 548.702 150.812C567.414 191.722 584.09 233.614 602.349 274.752C605.066 280.866 610.951 287.508 616.912 289.848C658.412 305.774 700.138 321.173 742.241 335.288C749.032 337.552 760.275 335.514 765.707 330.985C793.173 308.19 819.657 284.187 845.84 259.957C851.272 254.976 853.989 247.05 858.893 239.049H858.742ZM306.042 827.954C307.249 827.425 308.456 826.972 309.663 826.444C305.664 814.82 304.004 801.384 297.138 791.798C271.71 756.322 240.547 724.393 219.194 686.728C201.689 656.007 180.788 643.402 146.984 639.024C95.6003 632.382 100.203 620.607 83.9049 681.897C77.3404 706.655 77.7176 728.62 92.2048 749.755C113.785 781.08 136.27 811.876 156.944 843.805C186.975 890.226 234.662 895.811 282.953 900.944C292.837 902.001 297.892 898.076 298.798 887.584C300.609 867.657 303.476 847.881 305.966 827.954H306.042ZM64.3623 362.008C65.0414 382.841 89.2621 396.805 103.447 387.596C134.912 367.141 166.301 346.534 197.388 325.4C203.349 321.324 209.385 315.813 212.629 309.549C237.529 261.09 271.182 219.348 309.814 181.457C342.863 149 343.089 149.151 315.624 110.882C305.664 96.9934 293.013 94.578 277.671 103.636C184.636 158.662 117.256 236.256 74.2468 335.212C70.0213 344.874 66.9277 354.988 64.2868 362.008H64.3623ZM520.255 985.86C534.592 1000.28 547.117 1012.13 566.962 1008.13C602.425 1001.03 638.567 996.05 673.125 985.86C738.167 966.537 795.361 931.967 845.915 886.904C850.367 882.979 855.12 875.054 854.139 870.148C850.97 854.448 833.691 847.956 817.846 853.542C776.648 868.11 736.054 886.225 693.573 895.283C627.551 909.398 575.186 946.157 520.105 985.86H520.255ZM54.6287 406.089C26.3335 454.322 33.4261 633.967 64.4377 664.461C68.965 645.666 79.9813 626.57 76.0576 611.247C60.8914 552.145 61.0423 493.647 71.5304 434.394C74.1713 419.449 68.8141 410.467 54.6287 406.014V406.089ZM488.263 1002.16C412.96 976.652 343.769 932.797 259.034 925.475C290.649 965.631 441.708 1015.52 488.263 1002.16Z" fill="#00A7E1"/>
</g>
<defs>
<clipPath id="clip0_1_717">
<rect width="1047" height="1047" fill="white"/>
</clipPath>
</defs>
</svg>
