<svg width="153" height="255" viewBox="0 0 153 255" fill="none" xmlns="http://www.w3.org/2000/svg">
<path d="M142.765 2.79011C137.876 0.549187 134.127 -1.83699 131.927 3.1221L130.827 5.59127C128.627 10.5711 132.864 16.5262 137.733 18.7671C142.602 21.008 148.408 18.7878 150.608 13.808L151.709 11.3388C153.929 6.359 147.634 5.03104 142.765 2.79011Z" fill="#00A7E1"/>
<path d="M148.552 10.4667L134.413 4.84364C134.413 4.84364 106.361 64.6432 79.857 121.227L98.966 129.132C123.066 71.449 148.552 10.4667 148.552 10.4667Z" fill="#00A7E1"/>
<path d="M98.945 129.154L79.836 121.249C77.4932 126.249 75.1708 131.208 72.8688 136.105L92.6093 144.301C94.7076 139.301 96.806 134.238 98.945 129.154ZM69.4463 143.43C68.4888 145.484 67.5313 147.517 66.5942 149.53L86.9051 157.975C87.7607 155.921 88.6367 153.846 89.5127 151.75L69.4463 143.43ZM35.2212 218.355C33.9785 221.074 32.8173 223.792 31.595 226.51C30.5967 228.73 28.9466 230.743 26.3797 230.577C24.1388 230.452 21.5515 229.27 20.594 227.07C19.5143 224.539 21.796 222.07 22.7535 219.912C25.0148 214.807 22.7942 208.79 17.7827 206.487C14.0342 204.765 9.53202 205.615 6.61881 208.562C3.52226 211.736 1.70915 215.928 0.833147 220.202C-0.0428524 224.414 -0.307691 229.124 0.425704 233.399C2.74812 246.637 15.7862 254.771 28.3558 254.833C48.1371 254.936 54.9821 236.822 61.1548 221.219C63.518 215.222 83.4011 165.299 83.7475 165.445L63.1309 156.854C47.3018 190.676 36.4028 215.741 35.2212 218.355Z" fill="#00A7E1"/>
<path d="M92.6095 144.301L72.869 136.105L69.4261 143.43L89.4722 151.771C90.5112 149.302 91.5705 146.791 92.6095 144.301ZM63.1515 156.854L83.768 165.445C84.7866 162.996 85.846 160.506 86.8849 157.975L66.574 149.53C65.4284 151.969 64.2876 154.411 63.1515 156.854Z" fill="#00A7E1"/>
<path d="M125.958 23.165L135.106 42.3374C136.165 39.7852 137.183 37.3783 138.121 35.1374L129.137 16.4007C128.24 18.2889 127.181 20.5506 125.958 23.165ZM113.735 49.1432L123.534 70.0792C124.553 67.6308 125.551 65.2239 126.549 62.8792L116.913 42.3789C115.895 44.5576 114.835 46.8192 113.735 49.1432ZM101.695 74.7271L112.146 97.4061L115.161 90.2061L104.873 67.942C103.834 70.183 102.775 72.4446 101.695 74.7271ZM90.0425 99.481L101.145 123.924C102.144 121.517 103.142 119.131 104.16 116.724L93.2002 92.7375C92.1409 94.9784 91.1019 97.2193 90.0425 99.481Z" fill="#00A7E1"/>
<path d="M31.0859 239.913C31.0452 239.913 30.6173 240.224 29.5172 240.701C28.4172 241.179 26.8281 241.594 24.8317 241.697C23.8334 241.78 22.7537 241.677 21.6129 241.511C20.4924 241.262 19.2497 241.075 18.0478 240.535C16.8458 240.037 15.5828 239.394 14.4623 238.419C13.8919 237.942 13.3418 237.423 12.8325 236.821L12.4455 236.365L12.3436 236.24L12.3029 236.178L12.2825 236.157L12.201 235.991L12.0788 235.784L11.6306 234.954C10.9847 233.543 10.5322 232.049 10.286 230.513C10.0823 229.082 9.96007 227.671 10.0008 226.364C10.0416 223.708 10.3675 221.363 10.6935 219.371C11.0194 217.379 11.3657 215.781 11.5898 214.682C11.7936 213.582 11.9158 212.96 11.9158 212.96L11.9362 212.856C12.1387 211.812 12.7388 210.892 13.6053 210.297C14.4719 209.702 15.5344 209.481 16.5606 209.681C17.1463 209.799 17.6982 210.05 18.1749 210.416C18.6517 210.782 19.0409 211.253 19.3133 211.794C19.5858 212.335 19.7344 212.932 19.7481 213.54C19.7618 214.148 19.6401 214.751 19.3923 215.304C19.3923 215.304 18.333 217.628 17.1718 220.99C16.6014 222.67 16.0309 224.641 15.7661 226.716C15.6235 227.754 15.5624 228.791 15.6235 229.829C15.6846 230.866 15.9087 231.841 16.1328 232.63L16.4995 233.501L16.6014 233.709V233.73C16.6625 233.854 16.5199 233.584 16.5402 233.605V233.626L16.5606 233.667L16.581 233.75L16.7032 234.082C16.8255 234.56 17.131 234.954 17.3959 235.369C17.9459 236.199 18.7404 236.904 19.5553 237.547C21.2054 238.834 23.1815 239.456 24.8928 239.685C26.604 239.954 28.0912 239.664 29.0079 239.373C29.9451 239.104 30.5359 238.689 30.5155 238.73C30.8211 238.564 31.1878 238.689 31.3507 239C31.4933 239.394 31.3711 239.768 31.0859 239.913ZM67.3482 165.298C67.3482 165.298 66.6963 167.643 65.4943 171.067C64.3127 174.49 62.6218 179.014 60.7884 183.475C59.892 185.716 58.9549 187.915 58.0381 189.99C57.1214 192.044 56.3473 194.015 55.4305 195.572C54.5341 197.149 53.597 198.373 52.8636 199.182C52.1302 200.012 51.6006 200.427 51.6006 200.427C51.295 200.655 50.8468 200.593 50.6227 200.282C50.5456 200.163 50.4968 200.028 50.4801 199.887C50.4801 199.887 50.4394 199.203 50.5616 198.103C50.6838 197.003 50.9894 195.489 51.5598 193.766C52.1099 192.044 53.0674 190.156 54.0045 188.102C54.9416 186.048 55.9602 183.869 57.0399 181.711C59.1382 177.374 61.3792 173.121 63.1719 169.967C64.9239 166.813 66.2481 164.759 66.2481 164.759C66.4314 164.468 66.8185 164.385 67.1037 164.572C67.3074 164.759 67.4093 165.049 67.3482 165.298Z" fill="#00A7E1"/>
</svg>
