<svg width="102" height="135" viewBox="0 0 102 135" fill="none" xmlns="http://www.w3.org/2000/svg">
<path d="M86.1388 3.72974C80.9219 7.25237 74.1948 11.8801 69.6644 15.0229C68.5318 15.8172 64.6878 18.4419 61.084 20.8939C53.1557 26.316 47.9045 29.9077 39.9762 35.3989C38.569 36.3659 35.2741 38.6107 32.7 40.372C30.0916 42.1679 27.9636 43.7565 27.9636 43.9292C27.9636 44.1019 28.7873 45.4487 29.7827 46.8992C31.8076 49.8002 40.9372 63.4418 44.9871 69.4855C47.1837 72.8355 47.4583 73.4226 47.0464 73.8715C46.6689 74.355 31.2928 92.6244 27.6204 97.0449C26.8997 97.9083 22.5751 103.02 18.0104 108.442C13.4456 113.864 9.39563 118.733 8.98377 119.32L8.2287 120.356L9.32699 119.562C9.91046 119.148 11.1117 118.077 11.9698 117.179C12.8278 116.316 13.5485 115.763 13.5485 115.97C13.5485 116.212 13.7202 116.385 13.8918 116.385C14.0977 116.385 14.235 116.143 14.235 115.832C14.235 115.314 15.5735 113.898 17.5985 112.172C18.2163 111.688 18.3193 111.653 18.4909 112.102C18.7311 112.724 20.0697 112.413 20.5158 111.688C20.6531 111.412 21.0307 111.205 21.2709 111.205C21.5455 111.205 21.7857 110.963 21.7857 110.686C21.7857 110.41 21.5455 110.168 21.2709 110.168C20.9963 110.168 20.7561 110.376 20.7561 110.652C20.7561 111.135 20.0353 111.55 19.1773 111.55C18.5252 111.55 18.5595 110.894 19.2803 110.617C19.5892 110.479 20.6188 109.65 21.5798 108.718C22.8497 107.509 23.5361 107.095 24.1196 107.164C24.909 107.302 25.1836 106.888 24.4628 106.646C24.1882 106.542 24.3255 106.231 24.806 105.748C25.2179 105.333 25.5611 105.126 25.5611 105.299C25.5611 105.506 25.3895 105.748 25.2179 105.851C25.012 105.99 24.9776 106.231 25.0806 106.439C25.2179 106.68 25.4238 106.611 25.6298 106.231C25.8014 105.921 26.1789 105.679 26.4878 105.679C26.8653 105.679 26.9683 105.886 26.7967 106.577C26.6251 107.233 26.6937 107.44 27.0026 107.337C27.2429 107.233 27.4488 106.888 27.4488 106.542C27.4488 106.162 27.9293 105.679 28.5471 105.368C29.1649 105.057 29.6797 104.712 29.6797 104.608C29.6797 104.297 27.9979 103.883 27.6204 104.125C27.1742 104.401 26.934 103.814 27.2772 103.296C27.4831 102.916 27.792 102.985 28.8217 103.607C29.5767 104.09 29.9886 104.574 29.8856 104.85C29.7827 105.126 29.8513 105.333 29.9886 105.333C30.7094 105.333 30.6064 104.263 29.8513 103.676C29.0962 103.054 29.0619 102.985 29.6111 102.467C29.9886 102.087 30.0229 101.88 29.7484 101.88C29.5081 101.88 29.2335 102.122 29.1306 102.398C28.9933 102.674 28.6501 102.916 28.3412 102.916C27.9636 102.916 28.1009 102.605 28.8903 101.88C30.1602 100.671 30.1602 100.671 30.8123 101.327C31.2585 101.776 31.4301 101.707 32.2538 100.844C32.803 100.257 33.1462 99.7042 33.0089 99.6006C32.9059 99.4969 32.4254 99.8078 31.9793 100.291C31.4301 100.878 31.0526 101.051 30.9839 100.809C30.8123 100.326 31.8763 99.1171 32.4254 99.1171C32.6314 99.1171 32.7687 98.9444 32.7687 98.7372C32.7687 98.5299 33.4208 97.8047 34.2102 97.114C34.9996 96.4233 36.0635 95.4217 36.6127 94.9037C37.6766 93.8676 38.0885 93.695 37.8139 94.3857C37.711 94.6274 37.9512 94.8001 38.466 94.8001C39.427 94.8001 39.427 94.8346 38.7406 94.1094C38.2258 93.5914 38.2258 93.4878 38.9465 92.6934C39.3927 92.2445 39.9419 91.8646 40.1821 91.8646C40.3881 91.8646 40.7999 91.5192 41.1088 91.1048C41.7266 90.1378 42.3444 90.5868 41.7609 91.5192C41.2118 92.4171 41.2461 92.9006 41.8296 92.9006C42.1041 92.9006 42.5503 92.4517 42.8249 91.8646C43.3054 90.8976 43.3054 90.794 42.6876 90.3795C42.0698 89.9306 42.1041 89.8615 43.4084 88.7564C44.1634 88.1347 45.5706 86.8569 46.5659 85.9245C47.5613 84.992 48.7968 83.9905 49.346 83.6796C49.8608 83.3343 50.2727 82.9889 50.2727 82.8508C50.2727 82.7472 50.5472 82.3328 50.8905 81.9529C51.3366 81.4348 51.7485 81.2622 52.4349 81.4003C52.9498 81.5039 53.3616 81.7111 53.3616 81.8838C53.3616 82.0565 53.6019 82.1946 53.8764 82.1946C54.2883 82.1946 54.254 82.0565 53.7048 81.5039C53.3273 81.124 52.8811 80.8132 52.6752 80.8132C52.0574 80.8132 52.2976 80.1915 53.0184 79.9498C53.3959 79.8462 53.7048 79.5699 53.7048 79.3972C53.7048 79.2246 53.9451 79.0864 54.2197 79.0864C55.0091 79.0864 54.8374 79.6735 53.9794 79.9498C53.293 80.157 53.2587 80.2261 53.8078 80.3642C54.9404 80.675 56.073 79.0173 55.0091 78.6374C54.7002 78.5338 54.9061 78.223 55.4896 77.7395C56.0044 77.3251 56.8967 76.4962 57.4802 75.9437C58.3726 75.0112 58.5099 74.9767 58.5099 75.5638C58.5099 76.2545 57.7205 77.1524 57.4116 76.8416C57.3086 76.738 57.0684 76.8761 56.8281 77.1179C56.5192 77.5323 56.6908 77.6014 57.8234 77.5668C59.059 77.5323 59.1963 77.4632 59.2306 76.6689C59.2306 76.1854 59.2993 75.3911 59.3336 74.8385C59.4022 73.8025 59.2306 73.6989 58.5442 74.3205C58.1666 74.7004 58.098 74.6313 58.2696 73.9406C58.4069 73.3535 58.3039 73.1118 57.8578 72.9736C57.5145 72.9045 56.9311 72.1793 56.5192 71.385C55.5582 69.5201 54.9747 68.6221 54.5972 68.3458C54.2883 68.1041 55.0777 65.9629 55.4896 65.9629C55.6612 65.9629 55.7641 65.7211 55.7641 65.4449C55.7641 65.1686 55.6268 64.9268 55.4209 64.9268C55.2493 64.9268 55.0777 65.1686 55.0777 65.4449C55.0777 65.7211 54.9404 65.9629 54.7345 65.9629C54.5629 65.9629 54.3913 66.2046 54.3913 66.5155C54.3913 66.7917 54.2197 66.9299 54.0137 66.7917C53.8078 66.6881 53.7392 66.2046 53.8421 65.7557C53.9794 65.2722 53.9108 64.9268 53.7048 64.9268C53.5332 64.9268 53.3616 65.0995 53.3616 65.2722C53.3616 65.4794 53.1557 65.4449 52.8811 65.2031C52.5722 64.9268 52.5036 64.616 52.7095 64.4433C53.1557 63.9598 53.087 63.5109 52.5722 63.6145C52.332 63.6835 52.126 63.5454 52.126 63.3727C52.0917 62.7165 52.4006 61.8186 52.7095 61.8186C52.8811 61.8186 53.0184 61.5769 53.0184 61.3006C53.0184 60.4372 52.4349 60.7135 51.9544 61.7841L51.5083 62.7856L50.8905 61.7841C50.5472 61.2315 50.2727 60.5408 50.2727 60.299C50.2727 60.0228 50.1354 59.7465 49.9981 59.6774C49.4833 59.4702 48.1791 56.9836 48.385 56.6383C48.488 56.4656 48.3507 55.7749 48.0418 55.1187C47.7329 54.4625 47.5613 53.5646 47.6642 53.1156C47.7672 52.6667 47.7672 52.5285 47.6642 52.7357C47.5613 52.9775 47.2524 53.1847 47.0121 53.1847C46.7719 53.1847 46.4973 53.3919 46.3943 53.5991C46.2914 53.8409 45.9825 53.4955 45.6736 52.8394C45.1244 51.6306 44.4037 50.3873 44.0948 50.0765C43.3054 49.2822 43.2024 48.4879 43.8202 47.8662C44.1634 47.4863 44.438 46.9338 44.438 46.6575C44.438 46.2776 44.1978 46.3812 43.6143 47.0719L42.7906 48.0044L42.0355 46.7266C41.3147 45.5178 41.3147 45.4142 41.8982 44.9998C42.2414 44.758 42.619 44.5508 42.7906 44.5508C42.9278 44.5508 43.0651 44.4127 43.0651 44.2055C43.0651 44.0328 43.4427 43.5147 43.9232 43.0312C44.4037 42.5478 44.7812 42.2715 44.7812 42.4096C44.7812 42.5823 44.6096 42.8586 44.3694 43.1003C43.8202 43.6529 44.4723 43.6184 45.2274 43.0312C45.5363 42.7895 45.7422 42.3405 45.6393 42.0988C45.5363 41.8225 45.9825 41.1663 46.7375 40.5792C47.424 39.9921 48.4193 39.0942 49.0028 38.5762C49.9295 37.6437 50.0324 37.6437 50.4443 38.2308C51.0278 39.0251 51.5769 38.5071 51.0278 37.6437C50.5816 36.8839 50.9591 36.504 51.8515 36.8494C52.229 36.9875 52.3663 36.953 52.229 36.7112C51.8515 36.0896 52.332 35.2953 53.2243 35.0881C53.6705 34.9499 54.0481 34.6736 54.0481 34.3974C54.0481 34.1556 54.2883 33.7412 54.5629 33.4994C54.9404 33.1886 55.1807 33.2231 55.7985 33.8102C56.4506 34.4319 56.4849 34.5355 56.0044 34.5355C55.6955 34.5355 55.4209 34.3628 55.4209 34.1901C55.4209 33.9829 55.2836 33.8448 55.0777 33.8448C54.4942 33.8448 54.7002 34.4664 55.3866 34.7082C56.176 34.9499 57.137 34.6046 57.137 34.052C57.137 33.8102 56.7595 33.3958 56.279 33.1541C55.6955 32.8432 55.5582 32.6015 55.7985 32.4288C56.0387 32.2907 56.4162 32.2561 56.6908 32.3597C56.9311 32.4634 57.137 32.3597 57.137 32.1525C57.137 31.9453 56.9311 31.7726 56.7251 31.7726C56.3819 31.7726 56.3819 31.7036 56.7251 31.4618C56.9654 31.3237 57.9607 31.2546 58.9217 31.3582C60.6378 31.5309 60.6721 31.5309 60.02 30.8402C59.6425 30.4258 59.2306 30.2876 59.059 30.4258C58.8531 30.5984 58.4755 30.7366 58.201 30.7366C57.8234 30.7366 57.8921 30.5639 58.4412 30.0459C59.2649 29.2515 59.7454 29.1825 59.9857 29.7696C60.0543 30.0113 60.2603 30.1149 60.3976 29.9768C60.5348 29.8387 60.4662 29.4933 60.2259 29.1825C59.8827 28.7681 59.917 28.6299 60.3289 28.4572C60.6378 28.3536 61.5645 27.5938 62.3882 26.8341C65.7517 23.5532 67.0903 22.5516 67.4678 23.0006C67.6394 23.2078 68.1199 23.346 68.4975 23.2424C69.0123 23.1042 69.2525 23.2424 69.3898 23.7949C69.5614 24.5202 70.1792 24.831 70.1792 24.1748C70.1792 23.9676 70.3508 23.8295 70.5224 23.8295C70.7627 23.8295 70.7627 24.0367 70.5224 24.5202C70.2479 25.0727 70.2479 25.1418 70.6597 25.0037C71.2432 24.7619 71.6894 23.8295 71.2089 23.8295C71.0029 23.8295 70.8656 23.5877 70.8656 23.3114C70.8656 22.6898 71.4148 22.6207 71.6894 23.2078C71.861 23.5532 71.9639 23.5186 72.1355 23.1387C72.2385 22.8625 72.7877 22.1718 73.3368 21.6537C74.2978 20.6522 74.5724 20.0305 73.9889 20.0305C73.783 20.0305 73.2682 20.6522 72.822 21.4465C72.3072 22.2754 71.8953 22.6898 71.7237 22.4826C71.6207 22.2754 71.8266 21.5501 72.2385 20.8939C73.0965 19.5125 72.8906 18.8909 71.6894 19.2017C71.2432 19.3053 70.8656 19.2708 70.8656 19.1326C70.8656 18.7182 72.9593 17.4749 73.68 17.4404C74.0232 17.4404 74.2635 17.2677 74.1948 17.095C74.1605 16.8878 73.9889 16.7842 73.783 16.8533C73.6114 16.9223 73.8173 16.577 74.2635 16.0935C75.1902 15.092 75.8423 14.9193 75.5334 15.7136C75.3275 16.2662 76.5974 17.8203 76.9406 17.4749C77.0435 17.3713 76.8719 17.0605 76.563 16.7497C76.2541 16.4388 76.0139 16.059 76.0139 15.8863C76.0139 15.7136 75.9109 15.2992 75.808 14.9538C75.6707 14.6085 76.0482 14.8157 76.666 15.5064C77.2495 16.1626 77.8329 16.577 77.9359 16.4734C78.2448 16.1626 77.1122 14.5049 76.6317 14.5049C76.2885 14.5049 77.524 13.1925 81.1964 9.77348C82.3977 8.70287 83.5646 8.49566 83.5646 9.39358C83.5646 9.60079 83.3587 9.66987 83.0841 9.56626C82.8096 9.46265 82.3291 9.60079 81.9515 9.84254C81.4024 10.2915 81.4024 10.3951 81.8486 10.7059C82.2604 10.9822 82.1575 11.0168 81.471 10.8786C80.7503 10.7059 80.4757 10.8441 79.9266 11.6384C79.5833 12.1564 79.3431 12.8817 79.3774 13.1925C79.446 13.5378 79.1715 14.1595 78.7939 14.5739C78.3821 14.9883 78.0732 15.5064 78.0732 15.6791C78.0732 16.0244 79.2401 14.8502 81.1278 12.5709C81.574 12.0183 82.4663 11.0168 83.1185 10.2915C84.1138 9.25544 84.2511 8.94462 83.9422 8.39205C83.7363 8.04669 83.5646 7.97762 83.5646 8.18484C83.5646 8.42658 83.393 8.6338 83.1871 8.6338C82.9125 8.6338 82.9125 8.46112 83.2214 8.11576C83.7019 7.52866 84.5943 7.42505 84.5943 7.97762C84.5943 8.1503 84.7659 8.21937 84.9375 8.11576C85.1434 8.01215 85.2807 7.73587 85.2807 7.56319C85.2807 7.35598 85.1434 7.32144 84.9375 7.42505C84.7659 7.52866 84.5943 7.49413 84.5943 7.32144C84.5943 6.73434 87.34 4.45499 87.7519 4.69674C88.0265 4.86942 88.0608 4.73128 87.9235 4.35139C87.7862 3.97149 87.8205 3.83335 88.0608 4.00603C88.2667 4.10963 88.6786 3.86789 88.9875 3.41892C89.2963 2.96996 90.0857 2.00296 90.7035 1.27772C91.3556 0.587006 91.8362 -9.91821e-05 91.7675 -9.91821e-05C91.6989 -9.91821e-05 89.1591 1.69215 86.1388 3.72974ZM80.6473 12.3291C80.2354 12.9507 79.9609 13.1234 79.8579 12.8471C79.7206 12.3982 80.8532 11.0168 81.1278 11.2585C81.1964 11.3276 80.9905 11.8111 80.6473 12.3291ZM69.6644 20.7213C68.875 21.6192 69.2868 21.6192 70.2479 20.7213C70.6597 20.3414 71.2089 20.0305 71.4491 20.0305C72.0669 20.0305 71.9983 20.963 71.3805 21.2048C71.1059 21.3084 70.8656 21.6537 70.8656 21.93C70.8656 22.5862 69.9046 23.6568 69.5957 23.346C69.4585 23.2424 69.5614 22.9315 69.7674 22.7243C70.4195 22.0681 70.2479 21.5846 69.5614 22.2063C69.1839 22.5516 68.6691 22.6898 68.1886 22.5516C67.5021 22.379 67.0903 21.7573 67.7081 21.7573C67.8453 21.7573 68.4288 21.3084 68.978 20.7558C70.1106 19.6507 70.6597 19.6161 69.6644 20.7213ZM47.5269 55.1532C47.5269 55.6022 47.424 55.6022 47.0121 55.2569C46.7375 55.0151 46.4973 54.7043 46.4973 54.5316C46.4973 54.3589 46.7375 54.3244 47.0121 54.428C47.2867 54.5661 47.5269 54.877 47.5269 55.1532ZM48.2134 56.2929C48.2134 56.4656 48.0761 56.6383 47.8702 56.6383C47.6986 56.6383 47.5269 56.4656 47.5269 56.2929C47.5269 56.0857 47.6986 55.9476 47.8702 55.9476C48.0761 55.9476 48.2134 56.0857 48.2134 56.2929ZM27.5174 104.712C27.6891 104.263 28.6501 104.125 28.6501 104.539C28.6501 104.712 28.2725 104.988 27.792 105.23C27.3115 105.437 26.934 105.472 26.934 105.299C26.934 105.126 26.6937 104.988 26.4192 104.988C25.87 104.988 25.7327 104.574 26.1446 104.159C26.2819 104.021 26.6251 104.194 26.8653 104.539C27.2086 104.988 27.4145 105.023 27.5174 104.712Z" fill="url(#paint0_linear_1_24)"/>
<path d="M68.6346 22.1026C68.5317 22.2753 68.6003 22.448 68.7719 22.448C68.9778 22.448 69.1494 22.2753 69.1494 22.1026C69.1494 21.8954 69.0808 21.7573 69.0122 21.7573C68.9092 21.7573 68.7376 21.8954 68.6346 22.1026Z" fill="#00D1FF"/>
<path d="M85.8641 6.45823C85.7268 6.56184 85.6238 6.83812 85.6238 7.04534C85.6238 7.25255 85.7954 7.21801 86.0357 6.97626C86.2416 6.76905 86.3446 6.49277 86.276 6.38916C86.173 6.28555 85.9671 6.32009 85.8641 6.45823Z" fill="#00D1FF"/>
<path d="M16.2942 11.2933C12.5532 12.6402 9.36127 15.4375 7.61086 18.9947C6.58122 21.1359 6.51257 21.4467 6.51257 25.2111C6.51257 28.9064 6.58122 29.3209 7.5079 31.2548C10.082 36.4697 15.1273 39.7161 20.7904 39.7161C23.5018 39.7161 27.0026 38.7145 28.4784 37.5058L29.5081 36.6424L28.3068 36.6769C26.6937 36.746 23.3645 35.9862 23.2272 35.5718C23.1586 35.3646 22.8497 35.2264 22.5408 35.2264C22.0259 35.1919 22.0259 35.1574 22.5751 34.7429C22.884 34.5012 23.1586 34.0868 23.1586 33.8795C23.1586 33.6033 22.8153 33.7414 22.2662 34.1558C21.4082 34.812 21.3395 34.8465 20.5844 34.2594C20.0696 33.8795 19.898 33.5342 20.1039 33.2924C20.2755 33.0507 20.0353 32.5672 19.3832 31.9456C18.7997 31.393 18.3535 30.7023 18.3535 30.426C18.3535 30.0461 18.2506 30.0116 17.976 30.2878C17.6671 30.5987 17.7014 30.8404 18.1476 31.2548C18.4565 31.5657 18.8684 32.1528 19.0743 32.5672C19.4518 33.2579 19.4175 33.2579 18.4908 32.4636C17.118 31.2548 16.9807 31.0131 17.3582 30.3569C17.5298 30.0116 17.6671 29.459 17.6328 29.1136C17.6328 28.5956 17.5641 28.6301 17.2552 29.2518C17.0493 29.7007 16.7747 30.0461 16.6031 30.0461C16.2942 30.0461 15.4705 27.974 15.5735 27.3523C15.6078 27.1451 15.4705 26.9379 15.2646 26.9379C15.093 26.9379 14.9214 26.4544 14.9214 25.9018C14.9214 25.3147 14.7841 24.8658 14.5782 24.8658C14.3722 24.8658 14.2349 23.8988 14.2349 22.6555C14.2349 21.4122 14.4065 20.3071 14.5782 20.2035C14.7841 20.0998 14.9214 19.5818 14.9214 19.0638C14.9214 17.9932 16.3286 14.5051 16.7747 14.5051C16.912 14.5051 16.9463 14.7814 16.8091 15.0922C16.1226 16.7499 16.0197 17.9586 16.5345 18.3731C17.1866 18.8911 18.1476 18.3385 18.2849 17.3025C18.3535 16.9226 18.5595 16.5772 18.7311 16.5772C18.9027 16.5772 19.04 16.2664 19.04 15.8865C19.04 14.7814 18.5595 15.0922 17.9073 16.5772C17.3582 17.855 16.6374 18.4421 16.6374 17.6133C16.6374 16.7844 18.3878 13.8489 19.2802 13.1582C20.001 12.6402 20.1039 12.4675 19.6578 12.4329C19.3489 12.4329 18.6624 12.8474 18.1819 13.3654C17.7014 13.8834 17.3239 14.1597 17.3239 13.9525C17.3239 13.3654 18.7997 11.8458 19.6578 11.5696C20.0696 11.4659 20.4128 11.1897 20.4128 11.017C20.4128 10.5335 18.0103 10.7062 16.2942 11.2933Z" fill="url(#paint1_linear_1_24)"/>
<path d="M21.5798 11.3621C21.7514 11.6039 21.5455 11.742 21.1337 11.742C20.7218 11.742 20.4129 11.9147 20.4129 12.1219C20.4129 12.3291 20.7218 12.3982 21.0993 12.2601C21.4769 12.1565 22.5065 11.9838 23.3646 11.8802C24.7374 11.7766 24.909 11.8111 24.5315 12.2601C24.2912 12.5363 23.7764 12.7781 23.3989 12.7781C22.8841 12.7781 22.7811 12.8817 23.0557 13.158C23.3302 13.4343 23.7421 13.3652 24.4972 12.9508C25.5611 12.4327 25.6641 12.4327 27.1743 13.158C28.5471 13.8142 28.6844 14.0214 28.5814 14.9193C28.4785 15.6446 28.5814 16.0244 29.0619 16.2662C29.7141 16.6115 29.92 17.6131 29.3365 17.6131C28.7531 17.6131 27.6204 16.0935 27.792 15.5064C27.895 15.1956 27.792 14.7812 27.5175 14.5739C26.6251 13.8142 27.3115 16.6806 28.2726 17.6476L29.1992 18.5801L30.023 17.7167L30.8124 16.8878L30.0573 16.3353C29.4395 15.9208 29.3022 15.5755 29.4738 14.7812C29.6454 13.9523 29.5425 13.7106 28.9933 13.5724C28.6158 13.4688 28.3069 13.2616 28.3069 13.0889C28.3069 12.9162 28.1353 12.7781 27.9293 12.7781C27.7577 12.7781 26.934 12.4673 26.1446 12.1219C24.3599 11.2931 21.2366 10.775 21.5798 11.3621Z" fill="#CCFF00"/>
<path d="M41.6922 12.2947C38.0198 12.8473 33.7982 13.8834 33.7982 14.1942C33.7982 14.3669 34.1414 15.023 34.519 15.7137C35.0681 16.6117 35.4113 16.888 35.8232 16.7498C36.1321 16.6117 37.8482 16.1972 39.6329 15.8174C42.207 15.2302 44.129 15.0921 48.8997 15.0921C54.7687 15.0921 56.1416 15.2648 61.7703 16.7498C62.2165 16.8534 62.8686 16.5426 63.761 15.7483L65.0995 14.5741L63.0746 13.987C59.5051 12.9509 58.75 12.7782 54.7344 12.2602C50.1353 11.6385 45.7765 11.6731 41.6922 12.2947Z" fill="#30424B"/>
<path d="M77.8328 13.469C77.215 13.9525 77.1464 14.1597 77.5239 14.4705C77.8672 14.7468 78.0731 14.6432 78.4163 13.987C78.9998 12.8818 78.7938 12.6746 77.8328 13.469Z" fill="#00D1FF"/>
<path d="M20.5843 13.4689C20.447 13.6761 20.8246 13.8142 21.408 13.8142C21.9915 13.8142 22.472 13.6415 22.472 13.4689C22.472 13.2616 22.0945 13.1235 21.6483 13.1235C21.1678 13.1235 20.6873 13.2616 20.5843 13.4689Z" fill="#CCFF00"/>
<path d="M24.806 13.5724C23.4331 13.9178 23.0556 14.5049 24.1882 14.5049C24.5657 14.5049 24.8746 14.3667 24.8746 14.1941C24.8746 14.0214 25.2865 13.8142 25.8356 13.7451C26.3504 13.676 26.625 13.5379 26.4191 13.4343C26.2475 13.3307 25.4924 13.3652 24.806 13.5724Z" fill="#CCFF00"/>
<path d="M30.0229 14.7466C30.0229 14.9538 30.4691 15.4719 31.0526 15.9208C32.2882 16.9224 32.3225 17.4059 31.3272 18.0966C30.9153 18.4074 30.7437 18.6492 30.9496 18.6492C31.1556 18.6492 31.4988 18.4074 31.739 18.1311C32.5284 17.1641 32.7687 17.6131 32.0822 18.8218C31.3272 20.1687 31.1899 21.0667 31.739 21.0667C31.945 21.0667 32.0822 20.7213 32.0822 20.2723C32.0822 19.8579 32.3225 19.2017 32.5971 18.8564C33.1119 18.1657 33.1119 18.1657 33.1462 18.8564C33.1462 19.2017 33.2492 19.3053 33.3521 19.0981C33.4208 18.8564 33.2149 18.1311 32.8373 17.544C31.9793 16.1971 30.0229 14.2286 30.0229 14.7466Z" fill="#FFF500"/>
<path d="M74.8127 17.6476C74.6754 18.0621 74.3665 18.2693 74.1262 18.1657C73.8517 18.0621 73.4741 18.2347 73.2682 18.511C72.925 18.9255 72.9936 18.9945 73.8174 18.9255C74.3322 18.8564 74.8127 19.0291 74.9156 19.2708C75.0186 19.5816 75.2589 19.478 75.6707 18.9945C76.2542 18.3038 76.2542 18.2002 75.7394 17.5786C75.0529 16.7842 75.0873 16.7842 74.8127 17.6476ZM75.6707 18.2693C75.6707 18.4765 75.5334 18.7182 75.3275 18.8218C75.1559 18.9255 74.9843 18.7873 74.9843 18.511C74.9843 18.2002 75.1559 17.9585 75.3275 17.9585C75.5334 17.9585 75.6707 18.0966 75.6707 18.2693Z" fill="#00D1FF"/>
<path d="M27.277 18.3038C27.277 18.4765 27.4486 18.6492 27.6545 18.6492C27.8261 18.6492 27.8948 18.4765 27.7918 18.3038C27.6888 18.0966 27.5172 17.9585 27.4143 17.9585C27.3456 17.9585 27.277 18.0966 27.277 18.3038Z" fill="#FFF7F7"/>
<path d="M32.7686 20.4106C32.7686 21.4812 33.1804 23.1389 33.4893 23.1389C33.6609 23.1389 33.7982 22.9317 33.7982 22.6554C33.7982 21.9647 32.8029 19.7544 32.7686 20.4106Z" fill="#FF8A00"/>
<path d="M33.8325 20.376C33.8668 20.6523 34.0041 21.274 34.1414 21.7575L34.416 22.6208L34.4503 21.7575C34.4503 21.274 34.313 20.6523 34.1414 20.376C33.8325 19.9271 33.7982 19.9271 33.8325 20.376Z" fill="#FF8A00"/>
<path d="M14.9214 22.31C14.9214 23.0698 15.0244 23.1734 15.7108 23.0008C16.1226 22.8971 16.6718 22.7935 16.912 22.7935C17.5298 22.7935 17.4269 21.8611 16.7748 21.6193C15.5735 21.1358 14.9214 21.3776 14.9214 22.31Z" fill="#B9C825"/>
<path d="M76.0138 22.3444L75.2587 23.3114L76.7346 24.5202C79.6519 26.8686 84.8001 32.3252 86.5849 34.9499C91.6645 42.4096 94.2043 50.8708 94.2043 60.3336C94.2043 65.3067 93.2776 71.0742 91.6301 76.22C91.4242 76.8761 91.5958 77.0488 92.6941 77.5323C93.4149 77.8086 94.1013 77.9467 94.2386 77.8086C94.4788 77.5323 94.6504 77.0488 95.7831 73.0427C96.7097 69.7963 97.6364 63.0274 97.6364 59.5738C97.6364 55.395 96.3665 47.7626 95.2682 45.0689C95.0966 44.689 94.4445 43.1349 93.8267 41.6153C92.5911 38.6107 89.5365 33.2922 88.3696 32.118C88.2666 32.0144 87.6488 31.2546 86.9624 30.3912C84.148 26.9031 78.1417 21.412 77.0778 21.412C76.9062 21.412 76.4257 21.8264 76.0138 22.3444Z" fill="#30424B"/>
<path d="M31.5329 22.5516C31.4642 22.7933 31.6015 23.415 31.8418 23.933L32.3223 24.8655V23.4841C32.3223 22.1372 31.9104 21.6191 31.5329 22.5516Z" fill="#FF8A00"/>
<path d="M34.6906 23.5532C34.5876 23.795 34.4503 24.9346 34.3474 26.0743C34.2101 27.9392 34.2444 28.0774 34.6906 27.4903C34.9651 27.0759 35.1711 26.0398 35.1711 24.9692C35.1711 23.2424 34.9651 22.6208 34.6906 23.5532Z" fill="#FF8A00"/>
<path d="M66.9185 24.3821C66.2321 24.9001 66.2321 24.9347 67.0558 24.7965C67.5363 24.7275 67.9482 24.4857 68.0511 24.244C68.2227 23.6914 67.7422 23.7259 66.9185 24.3821Z" fill="#00FF57"/>
<path d="M60.1086 33.0554C59.2761 33.2643 59.2627 33.2961 60.075 33.491C60.5444 33.6153 61.0173 33.5536 61.2055 33.3711C61.5771 32.9291 61.121 32.773 60.1086 33.0554Z" fill="#00FF57"/>
<path d="M33.146 25.4182C33.146 25.7981 33.2489 25.9017 33.3519 25.6254C33.4548 25.3837 33.4205 25.0728 33.3176 24.9692C33.2146 24.8311 33.1116 25.0383 33.146 25.4182Z" fill="#FF8A00"/>
<path d="M64.1386 26.0743C64.0013 26.3506 63.7267 26.5924 63.4521 26.5924C63.1775 26.5924 62.9716 26.7305 62.9716 26.9032C62.9716 27.2485 64.6877 27.732 65.3398 27.5594C65.5801 27.4903 66.0262 27.8357 66.3351 28.3192C66.6784 28.9063 66.7127 29.0444 66.4038 28.7336C65.8203 28.2155 65.3741 28.181 65.3741 28.6645C65.3741 28.8372 65.6144 29.0099 65.9233 29.0099C66.3008 29.0099 66.4038 29.2171 66.2665 29.7696L66.0606 30.564L66.4381 29.7696C66.6784 29.3552 66.9872 29.0099 67.1245 29.0099C67.2961 29.0099 67.3305 28.7681 67.1932 28.4918C67.0902 28.181 67.1245 27.9738 67.2961 28.0083C68.0169 28.1465 68.4631 27.9393 68.4631 27.4903C68.4631 27.214 68.8749 26.6614 69.3898 26.247L70.3508 25.4872L69.1495 25.6254C68.1885 25.6944 67.9483 25.8671 67.9139 26.5233C67.8796 26.9377 67.7766 27.3867 67.6737 27.5248C67.3648 27.8357 66.4038 26.9377 66.4038 26.3506C66.4038 26.0743 66.2322 25.9707 66.0606 26.0743C65.8546 26.2125 65.786 26.4542 65.889 26.6269C65.9919 26.7996 65.8546 26.8341 65.5801 26.7305C65.2712 26.6269 65.0309 26.696 65.0309 26.9032C65.0309 27.1104 64.7907 27.2831 64.5161 27.2831C64.2415 27.2831 64.0013 27.1449 64.0013 26.9723C64.0013 26.7996 64.2415 26.5924 64.5161 26.4542C65.0996 26.247 65.2025 25.5563 64.6877 25.5563C64.4818 25.5563 64.2415 25.7981 64.1386 26.0743Z" fill="#00FF38"/>
<path d="M16.3284 27.1449C16.3284 27.3176 16.4656 27.7666 16.6029 28.1465C16.8775 28.8026 16.8775 28.8026 17.2894 28.0083C17.5296 27.5939 17.6326 27.1449 17.5296 27.0068C17.4266 26.9032 17.3237 27.0068 17.3237 27.2831C17.3237 27.6284 17.2207 27.6284 16.8089 27.2831C16.5343 27.0413 16.294 26.9722 16.3284 27.1449Z" fill="#AEC120"/>
<path d="M18.2163 27.4904C17.976 28.1466 18.3192 29.7007 18.7311 29.7007C18.9027 29.7007 19.04 29.4589 19.04 29.1826C19.04 28.9064 18.9027 28.6646 18.6968 28.6646C18.5252 28.6646 18.3536 28.4229 18.3536 28.1466C18.3536 27.8703 18.5252 27.6285 18.6968 27.6285C18.9027 27.6285 19.04 27.4559 19.04 27.2832C19.04 26.7306 18.4565 26.8688 18.2163 27.4904Z" fill="#ACC01F"/>
<path d="M33.1118 27.4558C33.1118 27.7321 33.2834 27.9739 33.455 27.9739C33.6609 27.9739 33.7982 27.7321 33.7982 27.4558C33.7982 27.1796 33.6609 26.9378 33.455 26.9378C33.2834 26.9378 33.1118 27.1796 33.1118 27.4558Z" fill="#FF8A00"/>
<path d="M32.0821 28.4919C32.0821 28.7681 32.1851 29.0099 32.3567 29.0099C32.494 29.0099 32.8028 29.4589 33.0431 30.046C33.3177 30.5985 33.6266 31.082 33.7982 31.082C34.21 31.082 34.5189 28.9063 34.1757 28.5609C33.9698 28.3537 33.9011 28.4919 34.0384 28.9754C34.313 30.0114 33.5236 29.9078 33.1117 28.8372C32.7685 27.9048 32.0821 27.663 32.0821 28.4919Z" fill="#FF8A00"/>
<path d="M61.2556 29.1826C61.4959 29.4589 61.9077 29.7007 62.148 29.7007C62.4226 29.7007 62.6285 29.4589 62.6285 29.1826C62.6285 28.8373 62.2853 28.6646 61.7361 28.6646C60.9811 28.6646 60.8781 28.7337 61.2556 29.1826Z" fill="#00FF57"/>
<path d="M31.3958 30.1842C31.3958 30.7023 32.0136 31.2548 32.2882 30.9785C32.5284 30.7368 32.0479 29.7007 31.7047 29.7007C31.5331 29.7007 31.3958 29.9079 31.3958 30.1842Z" fill="#FF7E07"/>
<path d="M64.3445 31.0819C64.7563 31.3582 64.7906 31.4618 64.4131 31.8417C64.0356 32.2216 63.864 32.1525 63.4521 31.5999C62.9716 30.9437 62.9029 30.9437 62.5941 31.4963C62.1822 32.2561 61.5987 32.2906 61.5987 31.5654C61.5987 31.2891 61.4614 31.151 61.2555 31.2546C60.8093 31.5309 61.633 32.8777 62.1135 32.6705C62.3195 32.6015 62.4911 32.8087 62.4911 33.154C62.4911 33.4994 62.3538 33.7066 62.1822 33.603C61.8733 33.4303 60.9123 34.121 60.9123 34.5355C60.9123 34.6736 61.1525 34.9153 61.4614 35.0189C61.7703 35.1571 61.9076 35.088 61.736 34.8463C61.5987 34.6045 61.7017 34.5009 61.9763 34.6045C62.2508 34.7081 62.7313 34.3973 63.0746 33.9483C63.6237 33.2576 63.658 33.0504 63.2462 32.5324C62.8343 32.0144 62.8686 31.9798 63.3834 32.3942C63.8983 32.8087 64.1042 32.7396 64.8593 31.9107C65.3398 31.3927 65.7173 30.9092 65.7173 30.8747C65.7173 30.8056 65.3055 30.7365 64.7906 30.7365C64.0356 30.7365 63.9326 30.8056 64.3445 31.0819Z" fill="#00FF38"/>
<path d="M19.7263 31.2893C19.7263 31.4274 20.0009 31.7037 20.3098 31.9455C20.756 32.2563 21.0649 32.2908 21.511 32.0145C22.5407 31.3584 22.6093 32.0491 21.5797 32.9815C20.6187 33.8794 20.5844 33.8794 21.4424 33.6377C22.2661 33.396 23.1585 32.7052 23.1585 32.2908C23.1585 31.9455 22.1975 31.0821 21.8199 31.0821C21.614 31.0821 21.4424 31.2202 21.4424 31.4274C21.4424 31.6001 21.2021 31.7728 20.9276 31.7728C20.653 31.7728 20.4128 31.6001 20.4128 31.4274C20.4128 31.2202 20.2755 31.0821 20.0695 31.0821C19.8979 31.0821 19.7263 31.1857 19.7263 31.2893Z" fill="#9EB91A"/>
<path d="M27.5517 31.6691C27.7919 31.7727 28.1008 31.7382 28.2038 31.6346C28.3411 31.531 28.1351 31.4274 27.7576 31.4619C27.3801 31.4619 27.2771 31.5655 27.5517 31.6691Z" fill="#FFF7F7"/>
<path d="M32.2881 31.7382C32.1508 31.9109 32.1851 32.2908 32.2881 32.5671C32.5283 33.2578 31.7389 33.7413 31.3614 33.1196C31.2241 32.8779 30.9838 32.7743 30.8466 32.8779C30.7436 33.016 30.8809 33.3959 31.2241 33.7068C31.7732 34.2939 31.8419 34.2593 32.4253 33.4995C32.7686 33.0506 32.9402 32.4635 32.8372 32.1526C32.7342 31.8418 32.8029 31.7382 33.0431 31.9109C33.2834 32.049 33.455 31.98 33.455 31.8073C33.455 31.3583 32.5283 31.2893 32.2881 31.7382Z" fill="#FF7E07"/>
<path d="M27.3802 34.4319C27.2429 34.7773 27.0026 35.1572 26.831 35.2953C26.4535 35.5371 27.3459 36.6077 27.9293 36.6077C28.4442 36.6077 28.4098 36.0206 27.895 35.7788C27.6548 35.6752 27.792 35.6752 28.2039 35.7443C29.1306 35.986 29.4738 35.468 28.9933 34.5355C28.5471 33.6721 27.6891 33.6376 27.3802 34.4319Z" fill="#99B618"/>
<path d="M54.6658 35.468C54.9061 35.5716 55.215 35.537 55.3179 35.4334C55.4552 35.3298 55.2493 35.2262 54.8717 35.2607C54.4942 35.2607 54.3912 35.3644 54.6658 35.468Z" fill="#FFF7F7"/>
<path d="M57.4801 35.4679C57.4801 35.6406 57.789 36.1241 58.1322 36.5731C58.5441 37.1256 58.8186 37.2638 58.9903 36.9875C59.1962 36.6767 59.3678 36.6767 59.7453 36.9875C60.0199 37.1947 60.2945 37.3328 60.3288 37.2638C60.3631 37.1947 60.672 36.7803 61.0152 36.4004C61.5987 35.6751 61.5987 35.6406 60.9123 35.4679C60.3631 35.3298 60.2258 35.3988 60.3631 35.8478C60.5004 36.2968 60.3631 36.4349 59.711 36.4349C59.2305 36.4349 58.853 36.2277 58.853 35.986C58.853 35.7442 58.7157 35.6406 58.5098 35.7442C58.3381 35.8478 58.1665 35.7787 58.1665 35.6061C58.1665 35.3988 58.0292 35.2262 57.8233 35.2262C57.6517 35.2262 57.4801 35.3298 57.4801 35.4679Z" fill="#00FF57"/>
<path d="M29.3365 35.9171C29.3365 36.0898 29.4738 36.2625 29.6454 36.2625C29.8513 36.2625 30.0916 36.0898 30.1945 35.9171C30.2975 35.7099 30.1602 35.5717 29.8856 35.5717C29.5767 35.5717 29.3365 35.7099 29.3365 35.9171Z" fill="#FFF7F7"/>
<path d="M5.31127 39.0942C2.46257 45.2761 1.12403 50.0075 0.334636 56.9491C-0.111545 60.7135 -0.111545 61.7841 0.334636 65.6175C1.57021 76.2545 5.65448 84.5085 13.7201 92.728C15.5734 94.6274 18.8683 97.4939 20.6873 98.7372L21.82 99.5315L22.8496 98.5645L23.8449 97.5975L23.0212 96.8032C22.5407 96.3542 22.0602 96.0089 21.9229 96.0089C21.4767 96.0089 17.873 92.7971 15.2645 90.1033C9.25825 83.9214 5.48288 76.9452 3.56087 68.5531C2.87443 65.5485 2.94308 56.8455 3.66383 53.5301C4.79644 48.5224 5.58584 46.2431 8.057 40.8901L9.36122 38.0581L8.26293 36.9875C7.64514 36.4004 7.09599 35.9169 6.9587 35.9169C6.85574 35.9169 6.13499 37.3674 5.31127 39.0942Z" fill="#30424B"/>
<path d="M56.7936 36.6768C56.7936 36.9876 56.9996 37.2984 57.2398 37.4021C57.5487 37.5057 57.5487 37.6783 57.1712 38.1273C56.828 38.5417 56.7936 38.818 57.0339 38.9562C57.2055 39.0943 57.4458 39.4051 57.5487 39.6814C57.6517 40.0613 57.9263 39.9232 58.6127 39.1634C59.1275 38.6108 59.5394 38.0237 59.5394 37.8165C59.5394 37.6438 59.3678 37.7129 59.1962 37.9892C58.9559 38.4036 58.7157 38.3 57.8233 37.333C57.1369 36.5387 56.7936 36.3315 56.7936 36.6768ZM58.5097 38.6799C58.5097 38.8525 58.2695 39.0252 57.9949 39.0252C57.7203 39.0252 57.4801 38.8525 57.4801 38.6799C57.4801 38.4727 57.7203 38.3345 57.9949 38.3345C58.2695 38.3345 58.5097 38.4727 58.5097 38.6799Z" fill="#EBFF00"/>
<path d="M55.2264 38.4352C54.3433 39.6723 54.2348 39.8484 54.5808 39.9423C54.9851 40.0725 56.2298 38.2484 55.8797 38.0301C55.763 37.9573 55.4544 38.1305 55.2264 38.4352Z" fill="#FFF500"/>
<path d="M64.938 29.4657C63.4376 29.6669 63.2358 29.7081 63.405 30.0259C63.588 30.4114 65.761 30.0727 65.679 29.6666C65.6517 29.5312 65.3148 29.4239 64.938 29.4657Z" fill="#00FF38"/>
<path d="M51.7285 41.549C51.0964 42.9329 51.0234 43.1266 51.3808 43.1523C51.8024 43.2025 52.678 41.1728 52.293 41.0257C52.1646 40.9767 51.8946 41.206 51.7285 41.549Z" fill="#FFF500"/>
<path d="M49.5365 49.0713C50.144 50.4663 50.2392 50.65 50.4959 50.3984C50.8133 50.1148 49.8882 48.1074 49.5231 48.2991C49.4014 48.3631 49.3922 48.7185 49.5365 49.0713Z" fill="#FFF500"/>
<path d="M51.3452 48.8147C51.9693 50.2024 52.0668 50.3849 52.3204 50.1301C52.6345 49.8427 51.6855 47.8467 51.3227 48.0428C51.2017 48.1082 51.1968 48.4638 51.3452 48.8147Z" fill="#FFF500"/>
<path d="M50.1954 46.1049C50.164 46.5677 50.2443 46.6433 50.324 46.882C50.5062 47.4272 50.8576 47.4721 51.0963 47.4C51.5082 47.2964 51.373 45.4016 50.9677 45.3279C50.9677 45.3279 50.2297 45.725 50.1954 46.1049Z" fill="#FFF500"/>
<path d="M49.5862 39.3704C49.9294 40.0266 50.9591 40.3374 50.9591 39.7848C50.9591 39.3358 50.1697 38.6797 49.6892 38.6797C49.3116 38.6797 49.3116 38.8523 49.5862 39.3704Z" fill="#01C8DA"/>
<path d="M53.2244 39.6468C53.1214 39.854 53.2931 40.1994 53.6019 40.372C54.1854 40.7174 54.1854 40.7865 53.5333 41.27C53.1214 41.6153 52.8469 42.2715 52.8125 42.9967C52.7782 44.0673 52.8125 44.1019 53.3274 43.6184C53.7392 43.204 53.7736 43.0313 53.4303 42.8931C52.7096 42.6514 52.9842 41.8571 53.8765 41.6498C54.8375 41.4081 55.421 41.6153 55.421 42.1679C55.421 42.3751 55.1121 42.4442 54.7346 42.306C54.2197 42.1333 54.1168 42.2024 54.2541 42.6168C54.5286 43.3421 53.1901 45.1725 52.435 45.1034C51.7143 45.0689 51.371 46.4848 51.9545 47.0719C52.2291 47.3482 52.332 47.3137 52.332 47.0029C52.332 46.5884 54.2541 43.9637 55.524 42.7205C56.1074 42.0988 56.1074 42.0297 55.5583 41.4081C55.2494 41.0282 55.0435 40.6829 55.1464 40.5792C55.4896 40.2339 56.4506 40.821 56.485 41.4081C56.485 41.8571 56.5536 41.8571 56.6909 41.4426C56.7939 41.1664 57.0684 40.7865 57.2744 40.6483C57.5146 40.4411 57.4116 40.4066 57.0684 40.5447C56.7252 40.6483 56.2104 40.4756 55.9015 40.1303C55.4553 39.7159 55.2494 39.6813 55.1464 39.9921C54.9748 40.5792 54.357 40.5102 53.8765 39.8195C53.6019 39.4741 53.396 39.405 53.2244 39.6468Z" fill="#FFF500"/>
<path d="M47.115 40.8209C46.0167 41.9951 45.948 42.1332 46.6688 42.1332C47.3552 42.1332 47.3209 42.7203 46.6002 43.1348C46.051 43.4456 46.051 43.4801 46.5658 43.5146C47.4925 43.5146 48.2133 43.1348 48.2133 42.6167C48.2133 42.3404 48.0417 42.1332 47.8357 42.1332C47.3552 42.1332 47.8357 40.6827 48.5222 40.1647C49.0027 39.8193 49.0027 39.7503 48.5565 39.7848C48.2819 39.7848 47.6298 40.2683 47.115 40.8209Z" fill="#01C9D9"/>
<path d="M43.6486 44.6199C43.4083 45.4833 43.5456 45.7595 44.0605 45.4142C44.5066 45.1379 44.5753 43.8601 44.1291 43.8601C43.9575 43.8601 43.7516 44.2054 43.6486 44.6199Z" fill="#01CAD8"/>
<path d="M45.4193 44.2747C45.179 45.138 45.3163 45.4143 45.8312 45.069C46.2773 44.7927 46.346 43.5149 45.8998 43.5149C45.7282 43.5149 45.5223 43.8602 45.4193 44.2747Z" fill="#01CAD8"/>
<path d="M59.3195 34.6909C59.0792 35.5543 59.2165 35.8306 59.7314 35.4852C60.1775 35.209 60.2462 33.9311 59.8 33.9311C59.6284 33.9311 59.4225 34.2765 59.3195 34.6909Z" fill="#00FF57"/>
<path d="M50.2726 44.2054C50.2726 44.3781 50.4442 44.5508 50.6158 44.5508C50.8217 44.5508 50.959 44.3781 50.959 44.2054C50.959 43.9982 50.8217 43.8601 50.6158 43.8601C50.4442 43.8601 50.2726 43.9982 50.2726 44.2054Z" fill="#FFF500"/>
<path d="M42.2413 45.5524C42.104 45.7596 42.2413 46.1741 42.5159 46.4849C42.9277 46.8993 43.065 46.8993 43.065 46.554C43.065 45.7942 42.4815 45.1035 42.2413 45.5524Z" fill="#01CBD8"/>
<path d="M44.8436 46.7653C44.7063 46.9725 44.8436 47.387 45.1182 47.6978C45.53 48.1122 45.6673 48.1122 45.6673 47.7668C45.6673 47.0071 45.0838 46.3164 44.8436 46.7653Z" fill="#01CBD8"/>
<path d="M50.2726 48.0045C50.2726 48.1772 50.4442 48.3499 50.6158 48.3499C50.8217 48.3499 50.959 48.1772 50.959 48.0045C50.959 47.7973 50.8217 47.6591 50.6158 47.6591C50.4442 47.6591 50.2726 47.7973 50.2726 48.0045Z" fill="#FFF500"/>
<path d="M52.675 47.8318C52.675 48.4534 53.3271 49.2132 53.5673 48.9369C53.7046 48.7988 53.5673 48.4189 53.2585 48.1081C52.9496 47.7627 52.675 47.6591 52.675 47.8318Z" fill="#FFF500"/>
<path d="M51.2252 43.8557C51.2252 44.4774 51.8773 45.2372 52.1175 44.9609C52.2548 44.8227 52.1175 44.4428 51.8086 44.132C51.4997 43.7867 51.2252 43.6831 51.2252 43.8557Z" fill="#FFF500"/>
<path d="M56.1158 38.9346C56.1158 39.5562 56.768 40.316 57.0082 40.0397C57.1455 39.9016 57.0082 39.5217 56.6993 39.2109C56.3904 38.8655 56.1158 38.7619 56.1158 38.9346Z" fill="#FFF500"/>
<path d="M44.0947 48.3844C43.6828 48.6607 43.6828 48.7988 44.026 48.937C44.232 49.006 44.4379 49.3169 44.4379 49.5932C44.4379 49.8349 44.8497 50.3184 45.3303 50.6292C45.9137 51.0091 46.154 51.4581 46.051 51.8725C45.9137 52.3215 46.051 52.4941 46.5658 52.4941C47.5268 52.4941 47.0807 51.1818 45.7421 50.1112C45.193 49.6622 44.8154 49.1097 44.9184 48.8334C45.1586 48.2117 44.6781 47.97 44.0947 48.3844Z" fill="#01CED5"/>
<path d="M55.1467 58.7438C54.7349 59.0201 54.7349 59.1582 55.0781 59.2963C55.284 59.3654 55.49 59.6762 55.49 59.9525C55.49 60.1943 55.9018 60.6778 56.3823 60.9886C56.9658 61.3685 57.206 61.8174 57.1031 62.2319C56.9658 62.6808 57.1031 62.8535 57.6179 62.8535C58.5789 62.8535 58.1327 61.5412 56.7942 60.4706C56.245 60.0216 55.8675 59.469 55.9705 59.1927C56.2107 58.5711 55.7302 58.3294 55.1467 58.7438Z" fill="#FF8A00"/>
<path d="M45.8109 48.3153C45.8109 48.488 46.0512 48.7988 46.3257 49.0405C46.6003 49.2823 46.8406 49.7658 46.8406 50.1111C46.8406 50.491 47.0465 50.7673 47.3211 50.7673C47.5613 50.7673 47.9045 51.1127 48.0418 51.5271C48.2821 52.2869 48.2821 52.2869 48.4537 51.6307C48.5566 51.2853 48.4537 50.9055 48.2477 50.8364C48.0418 50.7673 47.8702 50.491 47.8702 50.2147C47.8702 49.455 46.8406 48.0045 46.2914 48.0045C46.0168 48.0045 45.8109 48.1426 45.8109 48.3153Z" fill="#01CDD6"/>
<path d="M48.136 49.4722C48.136 49.7485 48.3076 49.9902 48.4792 49.9902C48.6851 49.9902 48.8224 49.7485 48.8224 49.4722C48.8224 49.1959 48.6851 48.9542 48.4792 48.9542C48.3076 48.9542 48.136 49.1959 48.136 49.4722Z" fill="#01CDD6"/>
<path d="M44.5324 45.846C44.5324 46.1223 44.704 46.364 44.8756 46.364C45.0816 46.364 45.2188 46.1223 45.2188 45.846C45.2188 45.5697 45.0816 45.3279 44.8756 45.3279C44.704 45.3279 44.5324 45.5697 44.5324 45.846Z" fill="#01CDD6"/>
<path d="M54.2197 50.2838C54.7345 51.1126 54.7345 51.2162 54.2197 51.8033C53.8765 52.1832 53.8078 52.494 54.0137 52.6322C54.1853 52.7703 54.4256 52.5286 54.5629 52.1487C54.8375 51.2508 55.318 51.2508 55.5925 52.1832C55.7298 52.5631 55.9014 52.8049 56.0044 52.7358C56.2446 52.4595 54.6315 49.7657 54.0824 49.5585C53.7392 49.4204 53.7735 49.6276 54.2197 50.2838Z" fill="#FFF500"/>
<path d="M52.675 50.2492C52.675 50.5255 52.8466 50.7672 53.0182 50.7672C53.2241 50.7672 53.3614 51.0435 53.3614 51.3543C53.3614 51.7687 53.4644 51.8378 53.739 51.5615C54.0135 51.2852 53.9106 50.9744 53.3957 50.4564C52.8466 49.9038 52.675 49.8693 52.675 50.2492Z" fill="#FFF500"/>
<path d="M51.271 50.7413C51.1662 50.9966 51.2331 51.286 51.3917 51.3519C51.582 51.431 51.6041 51.7391 51.4862 52.0264C51.3289 52.4094 51.3979 52.5128 51.7565 52.3629C52.1151 52.213 52.1378 51.8862 51.8586 51.2096C51.5606 50.488 51.4151 50.3901 51.271 50.7413Z" fill="#FFF500"/>
<path d="M59.5081 61.6199C59.4033 61.8753 59.4702 62.1646 59.6288 62.2306C59.8191 62.3097 59.8412 62.6178 59.7233 62.905C59.566 63.2881 59.635 63.3915 59.9936 63.2416C60.3522 63.0917 60.375 62.7649 60.0957 62.0883C59.7978 61.3666 59.6523 61.2688 59.5081 61.6199Z" fill="#FF8A00"/>
<path d="M52.5377 52.0797C52.4348 52.2869 52.5034 52.5632 52.7093 52.6668C53.2242 53.0122 53.5674 52.5632 53.1212 52.1142C52.8809 51.8725 52.675 51.8725 52.5377 52.0797Z" fill="#FFF500"/>
<path d="M48.2477 54.0827C48.2477 54.4626 48.3507 54.5662 48.4536 54.29C48.5566 54.0482 48.5223 53.7374 48.4193 53.6338C48.3163 53.4956 48.2134 53.7028 48.2477 54.0827Z" fill="#FFF7F7"/>
<path d="M56.7936 54.1172C56.7936 54.3244 56.9996 54.6007 57.2398 54.7043C57.583 54.877 57.583 54.9461 57.2398 55.1187C56.725 55.3605 56.6564 56.293 57.1369 56.293C57.3428 56.293 57.4801 56.6728 57.4801 57.1218C57.4801 57.5708 57.7203 58.0197 57.9949 58.1579C58.5784 58.3651 58.7157 57.8471 58.1665 57.5017C57.7546 57.26 57.686 56.293 58.0979 56.293C58.2351 56.293 58.647 56.8455 58.9902 57.5017C59.3678 58.1579 59.7796 58.7104 59.9512 58.7104C60.2258 58.7104 59.7796 57.7435 58.75 56.1548C58.0292 54.9461 56.7936 53.7028 56.7936 54.1172ZM57.7203 56.0167C57.6174 56.293 57.5144 56.1894 57.5144 55.8095C57.4801 55.4296 57.583 55.2224 57.686 55.3605C57.789 55.4641 57.8233 55.7749 57.7203 56.0167Z" fill="#EDA00C"/>
<path d="M48.8997 56.9492C48.8997 57.1564 49.0713 57.3981 49.2429 57.5017C49.4489 57.6053 49.5862 57.4672 49.5862 57.1909C49.5862 56.8801 49.4489 56.6383 49.2429 56.6383C49.0713 56.6383 48.8997 56.7765 48.8997 56.9492Z" fill="#01D0D3"/>
<path d="M50.6158 57.1563C50.6158 57.4326 50.7875 57.6743 50.9591 57.6743C51.165 57.6743 51.3023 57.8816 51.3023 58.0888C51.3023 58.3305 51.6112 58.9867 52.023 59.5738L52.7095 60.6099L52.5035 59.4011C52.3662 58.7449 52.0574 58.0197 51.7828 57.8125C51.5082 57.6053 51.3023 57.2599 51.3023 57.0182C51.3023 56.8109 51.165 56.6383 50.9591 56.6383C50.7875 56.6383 50.6158 56.88 50.6158 57.1563Z" fill="#01D2D2"/>
<path d="M52.3319 57.1909C52.3319 57.4672 52.5035 57.6053 52.6751 57.5017C52.8811 57.3981 53.0183 57.1564 53.0183 56.9492C53.0183 56.7765 52.8811 56.6383 52.6751 56.6383C52.5035 56.6383 52.3319 56.8801 52.3319 57.1909Z" fill="#01D1D3"/>
<path d="M50.1352 58.6068C50.6844 60.2646 51.4395 61.6114 51.5768 61.197C51.7484 60.679 50.5814 58.0197 50.2039 58.0197C50.0666 58.0197 50.0323 58.296 50.1352 58.6068Z" fill="#01D2D2"/>
<path d="M56.7936 58.9176C56.7936 59.0212 57.0339 59.332 57.3085 59.6429C57.7203 60.0573 57.9606 60.0573 58.3381 59.7465C58.6127 59.5392 59.0245 59.4702 59.2648 59.6083C59.505 59.7465 59.4364 59.5392 59.0932 59.1939C58.5784 58.6068 58.4411 58.6068 58.1322 59.0557C57.8576 59.4356 57.7203 59.4702 57.583 59.1248C57.4114 58.7104 56.7936 58.5377 56.7936 58.9176Z" fill="#FF8A00"/>
<path d="M66.1548 74.2897C66.1548 74.3933 66.395 74.7041 66.6696 75.0149C67.0815 75.4294 67.3217 75.4294 67.6993 75.1185C67.9738 74.9113 68.3857 74.8422 68.6259 74.9804C68.8662 75.1185 68.7975 74.9113 68.4543 74.566C67.9395 73.9789 67.8022 73.9789 67.4933 74.4278C67.2188 74.8077 67.0815 74.8422 66.9442 74.4969C66.7726 74.0825 66.1548 73.9098 66.1548 74.2897Z" fill="#FF8A00"/>
<path d="M54.0565 53.0502C54.0565 53.1538 54.2968 53.4646 54.5713 53.7754C54.9832 54.1898 55.2235 54.1898 55.601 53.879C55.8756 53.6718 56.2874 53.6027 56.5277 53.7409C56.7679 53.879 56.6993 53.6718 56.3561 53.3265C55.8412 52.7394 55.704 52.7394 55.3951 53.1883C55.1205 53.5682 54.9832 53.6027 54.8459 53.2574C54.6743 52.843 54.0565 52.6703 54.0565 53.0502Z" fill="#FFF500"/>
<path d="M61.1526 60.7826C60.9123 61.7496 61.1869 62.3713 61.6331 61.9223C61.839 61.7151 61.839 61.2661 61.6674 60.7826L61.3585 59.9538L61.1526 60.7826Z" fill="#FF8A00"/>
<path d="M53.6308 54.4452C53.3906 55.4122 53.6651 56.0339 54.1113 55.5849C54.3172 55.3777 54.3172 54.9287 54.1456 54.4452L53.8367 53.6164L53.6308 54.4452Z" fill="#FFF500"/>
<path d="M63.2845 67.0859C63.5387 68.0493 64.0777 68.4599 64.2527 67.8499C64.3334 67.5683 64.1177 67.1753 63.7352 66.8355L63.0667 66.2601L63.2845 67.0859Z" fill="#FF8A00"/>
<path d="M57.1455 60.4371C57.1455 60.6098 57.3171 60.7825 57.4887 60.7825C57.6947 60.7825 57.8319 60.6098 57.8319 60.4371C57.8319 60.2299 57.6947 60.0918 57.4887 60.0918C57.3171 60.0918 57.1455 60.2299 57.1455 60.4371Z" fill="#FF8A00"/>
<path d="M58.1665 60.7826C58.1665 60.9553 58.4068 61.1279 58.6813 61.1279C58.9559 61.1279 59.1962 60.9553 59.1962 60.7826C59.1962 60.5754 58.9559 60.4372 58.6813 60.4372C58.4068 60.4372 58.1665 60.5754 58.1665 60.7826Z" fill="#FF8A00"/>
<path d="M58.6899 64.0633C58.6899 64.236 58.9301 64.4087 59.2047 64.4087C59.4793 64.4087 59.7195 64.236 59.7195 64.0633C59.7195 63.8561 59.4793 63.718 59.2047 63.718C58.9301 63.718 58.6899 63.8561 58.6899 64.0633Z" fill="#FF8A00"/>
<path d="M60.2258 60.7826C60.2258 60.9553 60.3974 61.1279 60.6034 61.1279C60.775 61.1279 60.8436 60.9553 60.7407 60.7826C60.6377 60.5754 60.4661 60.4372 60.3631 60.4372C60.2945 60.4372 60.2258 60.5754 60.2258 60.7826Z" fill="#FF8A00"/>
<path d="M62.2851 62.5094C62.2851 63.0275 62.1135 63.2002 61.7703 63.0966C61.4957 62.9584 61.1868 63.0275 61.0838 63.2347C60.9465 63.4074 61.1525 63.6491 61.4957 63.7527C61.8389 63.8563 62.3537 64.0635 62.697 64.2362C63.0745 64.4434 63.3147 64.3744 63.452 64.029C63.7609 63.2692 63.7266 63.2002 63.1775 63.4074C62.7999 63.5455 62.7313 63.4074 62.8686 62.9239C62.9372 62.544 62.8686 62.1296 62.6626 62.0259C62.4224 61.8533 62.2851 62.0605 62.2851 62.5094Z" fill="#FF8A00"/>
<path d="M64.0528 69.1835C64.0528 69.7016 63.8812 69.8742 63.538 69.7706C63.2634 69.6325 62.9545 69.7016 62.8515 69.9088C62.7142 70.0814 62.9202 70.3232 63.2634 70.4268C63.6066 70.5304 64.1214 70.7376 64.4647 70.9103C64.8422 71.1175 65.0824 71.0484 65.2197 70.7031C65.5286 69.9433 65.4943 69.8742 64.9452 70.0814C64.5676 70.2196 64.499 70.0814 64.6363 69.5979C64.7049 69.2181 64.6363 68.8036 64.4303 68.7C64.1901 68.5273 64.0528 68.7346 64.0528 69.1835Z" fill="#FF8A00"/>
<path d="M63.7267 64.6852C63.2805 65.2032 64.0356 66.2048 65.4771 67.1027C66.5067 67.7589 66.747 68.5877 65.8203 68.2424C65.3398 68.0351 65.4084 68.1733 65.9919 68.8295C66.4038 69.2784 66.747 69.7274 66.747 69.8655C66.747 70.1764 65.8203 70.1764 65.6144 69.831C65.5457 69.6929 65.5457 69.831 65.6487 70.1073C65.7173 70.3836 65.8546 71.2124 65.9576 71.9031C66.1292 73.181 67.0902 73.8371 67.0902 72.6975C67.0902 72.4212 67.2618 72.1794 67.4334 72.1794C67.6393 72.1794 67.7766 72.3521 67.7766 72.5593C67.7766 73.0428 68.6347 73.9062 69.1152 73.9062C69.3211 73.9062 69.4927 73.7335 69.4927 73.5608C69.4927 73.3536 69.6643 73.2155 69.8359 73.2155C70.0419 73.2155 70.1791 73.5263 70.1791 73.9062C70.1791 74.2861 70.0419 74.5969 69.8359 74.5969C69.2181 74.5969 69.4584 75.2876 70.1105 75.2876C70.6596 75.3222 70.6596 75.3222 70.1105 75.7711C69.4241 76.2546 69.2868 77.0144 69.8359 77.0144C70.0419 77.0144 70.1791 76.8763 70.1791 76.669C70.1791 76.4964 70.5224 76.0474 70.9342 75.633C71.3461 75.2531 71.552 74.8387 71.449 74.7005C71.3118 74.5969 71.2088 74.666 71.2088 74.8732C71.2088 75.1149 71.0715 75.2876 70.8656 75.2876C70.694 75.2876 70.6253 75.0459 70.7626 74.7696C70.8656 74.4588 70.3851 73.4227 69.63 72.3176C68.8749 71.247 68.0169 69.9001 67.708 69.2784C67.3648 68.6913 67.0902 68.415 67.0902 68.6223C67.0902 68.864 66.9186 69.0712 66.7127 69.0712C66.5067 69.0712 66.4381 68.7949 66.5754 68.415C66.7127 68.0006 66.4038 67.4135 65.7173 66.6537C65.1682 66.0321 64.6877 65.3414 64.6877 65.0996C64.6877 64.4089 64.1385 64.1672 63.7267 64.6852ZM67.7423 70.4526C68.2228 70.798 69.4927 72.6284 69.4927 72.9047C69.4927 73.0773 69.2525 73.2155 68.9779 73.2155C68.7033 73.2155 68.4631 72.9737 68.4631 72.6975C68.4631 72.4212 68.2915 72.1794 68.1198 72.1794C67.9139 72.1794 67.605 71.8341 67.4334 71.3851C67.1932 70.798 67.1245 70.7635 67.1245 71.2124C67.0902 71.9722 66.4038 72.0413 66.4038 71.316C66.4038 70.5217 67.2275 69.313 67.3991 69.831C67.4677 70.0727 67.6393 70.349 67.7423 70.4526Z" fill="#FF8A00"/>
<path d="M61.5988 64.9269C61.5988 65.0995 61.7704 65.2722 61.942 65.2722C62.1479 65.2722 62.2852 65.0995 62.2852 64.9269C62.2852 64.7196 62.1479 64.5815 61.942 64.5815C61.7704 64.5815 61.5988 64.7196 61.5988 64.9269Z" fill="#FF8A00"/>
<path d="M56.073 66.1356C55.7984 66.4118 56.4849 68.3804 56.8624 68.3804C56.9997 68.3804 57.137 68.1386 57.137 67.8623C57.137 67.5861 56.9997 67.3443 56.8281 67.3443C56.6565 67.3443 56.4506 67.0335 56.3819 66.6191C56.3133 66.2392 56.176 65.9974 56.073 66.1356Z" fill="#01D5CF"/>
<path d="M61.4958 67.9315C60.981 68.4495 61.2899 69.4165 61.942 69.4165C62.3195 69.4165 62.6284 69.2093 62.6284 68.933C62.6284 68.3459 61.8047 67.6207 61.4958 67.9315Z" fill="#FF8A00"/>
<path d="M65.1261 74.9303C64.6113 75.4483 64.9202 76.4153 65.5723 76.4153C65.9499 76.4153 66.2587 76.2081 66.2587 75.9318C66.2587 75.3447 65.435 74.6194 65.1261 74.9303Z" fill="#FF8A00"/>
<path d="M56.0042 68.9676C55.9013 69.1058 56.0385 69.5547 56.3131 69.9346C56.6563 70.3836 56.7936 70.4526 56.7936 70.0727C56.7936 69.382 56.2445 68.5877 56.0042 68.9676Z" fill="#01D6CE"/>
<path d="M58.5098 69.5547C58.5098 69.6238 58.75 69.7619 59.0246 69.9001C59.2992 70.0037 59.5394 69.9346 59.5394 69.7619C59.5394 69.5547 59.2992 69.4166 59.0246 69.4166C58.75 69.4166 58.5098 69.4856 58.5098 69.5547Z" fill="#FFF7F7"/>
<path d="M57.9606 71.9375C58.4068 72.3864 58.9902 72.7663 59.2305 72.7663C59.5051 72.7663 60.0542 72.8699 60.5004 73.0081C61.0152 73.1808 61.2555 73.1117 61.2555 72.8009C61.2212 72.2483 59.0932 71.1432 57.9949 71.1432H57.1712L57.9606 71.9375Z" fill="#01D7CD"/>
<path d="M60.466 74.4931C60.3288 74.5967 60.2258 75.2184 60.2258 75.84C60.2258 76.4617 60.0885 77.0833 59.8826 77.1869C59.4021 77.4977 59.4707 78.0503 59.9855 78.0503C60.6377 78.0503 61.3241 76.289 60.8779 75.7364C60.6033 75.4256 60.6033 75.2874 60.8779 75.2874C61.0838 75.2874 61.2554 75.0457 61.2554 74.7694C61.2554 74.2168 60.8436 74.0787 60.466 74.4931Z" fill="#FF540B"/>
<path d="M71.2773 76.0475C70.6252 76.7036 70.7968 77.049 71.5519 76.6C72.2383 76.1511 72.4786 75.633 71.9638 75.633C71.8265 75.633 71.5176 75.8057 71.2773 76.0475Z" fill="#FF8A00"/>
<path d="M68.9437 77.9468C68.4975 78.3957 68.2916 78.4303 68.1886 78.1194C68.0513 77.6359 67.0903 77.5669 67.0903 78.0504C67.0903 78.223 66.8501 78.3957 66.5755 78.3957C66.3009 78.3957 66.0607 78.223 66.0607 78.0504C66.0607 77.8432 65.7518 77.705 65.3742 77.705C64.9967 77.705 64.6878 77.8432 64.6878 78.0504C64.6878 78.223 64.9967 78.3957 65.3399 78.3957C65.7175 78.3957 66.0607 78.6029 66.1636 78.8101C66.3009 79.1555 66.4039 79.1555 66.7814 78.8101C67.0217 78.6029 67.4679 78.3957 67.7424 78.3957C68.0513 78.3957 67.7081 78.7756 67.0217 79.2591C65.4086 80.3642 64.0014 80.9168 64.0014 80.4679C64.0014 80.2606 63.7268 80.1225 63.3836 80.1225C62.6972 80.1225 61.5989 81.124 61.5989 81.7802C61.5989 81.9874 61.3586 82.091 61.084 81.9874C60.8095 81.8493 60.5692 81.9529 60.5692 82.1946C60.5692 82.4709 60.9124 82.5055 61.7018 82.3673L62.8001 82.091L61.9421 82.8508L61.084 83.6106L62.2167 82.989C62.8344 82.6436 63.6582 82.091 64.0014 81.7457C64.3789 81.4349 64.7565 81.1586 64.8594 81.1586C65.031 81.1586 67.5022 79.6045 68.2916 78.9828C69.6644 77.9468 70.2136 77.3597 69.9047 77.3597C69.6988 77.3597 69.2869 77.6359 68.9437 77.9468ZM63.4522 81.6766C63.3149 81.9529 63.109 82.1946 62.9374 82.1946C62.7658 82.1946 62.6285 81.9529 62.6285 81.6766C62.6285 81.4003 62.8688 81.1586 63.1433 81.1586C63.4522 81.1586 63.5552 81.3658 63.4522 81.6766Z" fill="#FF540B"/>
<path d="M61.084 78.0504C60.981 78.2231 61.1183 78.3958 61.3929 78.3958C61.7018 78.3958 61.942 78.2231 61.942 78.0504C61.942 77.8432 61.8047 77.705 61.6331 77.705C61.4272 77.705 61.187 77.8432 61.084 78.0504Z" fill="#FF540B"/>
<path d="M55.8669 78.5338C56.1758 78.7756 56.4504 79.1555 56.4504 79.3972C56.4504 79.6044 56.622 79.7771 56.7936 79.7771C56.9995 79.7771 57.1368 79.6044 57.1368 79.3972C57.1368 78.8792 56.2445 78.0503 55.6953 78.0503C55.3864 78.0849 55.4551 78.223 55.8669 78.5338Z" fill="#01DACA"/>
<path d="M61.6673 79.0864C61.2211 79.4663 60.9809 79.9153 61.0838 80.1225C61.2554 80.3988 61.4957 80.3297 61.9076 79.9498C62.2164 79.639 62.7656 79.19 63.1431 78.9137L63.8296 78.4302H63.1431C62.7656 78.4302 62.1135 78.7065 61.6673 79.0864Z" fill="#FF540B"/>
<path d="M60.6577 66.6998C61.0134 67.1665 61.4475 67.4296 61.6581 67.3361C61.9406 67.1769 61.8836 66.9321 61.5263 66.4999C61.2327 66.1744 60.8134 65.6009 60.5573 65.2082L60.1104 64.495L60.0774 65.1849C60.0592 65.5644 60.3021 66.2331 60.6577 66.6998Z" fill="#FF8A00"/>
<path d="M81.6425 79.0866C78.7252 79.6737 75.7049 81.4005 73.3023 83.818C67.9825 89.2401 66.8499 96.5962 70.2134 103.641C71.5519 106.404 74.8468 109.685 77.7298 111.067C88.3695 116.247 100.897 109.167 101.927 97.3905C102.956 85.7865 93.003 76.8418 81.6425 79.0866ZM88.85 81.366C94.2385 82.7474 98.0826 86.719 99.5241 92.3137C101.034 98.2539 98.5974 104.539 93.2775 108.166C88.7814 111.239 83.7361 111.516 78.5879 108.994C76.4943 107.958 73.268 105.196 73.268 104.47C73.268 104.332 73.0621 104.021 72.7875 103.745C71.0714 102.053 70.0075 95.5256 70.8655 92.2792C73.0964 84.0943 80.9217 79.3284 88.85 81.366Z" fill="url(#paint2_linear_1_24)"/>
<path d="M79.9265 92.21C79.1028 92.5208 78.5193 93.2461 79.0685 93.2461C79.2744 93.2461 79.8236 93.0734 80.2697 92.8316C81.0248 92.5208 81.2651 92.5553 81.8485 93.0734C83.0841 94.1785 82.7066 95.3527 80.2354 98.2883C79.446 99.2553 78.7596 100.153 78.7596 100.291C78.7596 100.395 79.8579 100.499 81.1621 100.499C82.535 100.499 83.5646 100.36 83.5646 100.153C83.5646 99.946 82.8782 99.8078 82.0545 99.8078C80.6816 99.8078 79.6863 99.3589 80.407 99.048C80.5443 99.0135 81.1621 98.2883 81.8142 97.4594C83.0841 95.8362 83.5303 93.7641 82.8095 92.8662C82.2261 92.1409 80.8532 91.8301 79.9265 92.21Z" fill="#00D1FF"/>
<path d="M88.0262 92.1063C86.722 92.6243 86.0356 95.1454 86.4818 97.7356C86.8936 100.257 88.8843 101.327 90.2571 99.8077C91.1495 98.8062 91.3897 94.7655 90.6347 93.315C90.3258 92.6934 89.9139 92.2099 89.7766 92.2099C89.605 92.2099 89.2618 92.1408 88.9872 92.0717C88.747 91.9681 88.3008 92.0027 88.0262 92.1063ZM89.8796 93.315C90.2228 93.7985 90.4287 94.8346 90.4287 96.1815C90.4287 99.4969 88.6783 101.051 87.5114 98.7716C85.9326 95.698 88.0949 90.7249 89.8796 93.315Z" fill="#00D1FF"/>
<path d="M64.0011 79.4317C64.0011 79.6044 64.1384 79.7771 64.31 79.7771C64.5159 79.7771 64.7562 79.6044 64.8591 79.4317C64.9621 79.2245 64.8248 79.0864 64.5502 79.0864C64.2413 79.0864 64.0011 79.2245 64.0011 79.4317Z" fill="#FF540B"/>
<path d="M55.1807 81.2624C55.318 81.6077 55.421 81.9876 55.421 82.0567C55.421 82.1258 55.5926 82.1948 55.7985 82.1948C56.3133 82.1948 57.2743 81.1588 56.9998 80.8825C56.8625 80.7789 56.6222 80.8825 56.4506 81.1588C56.2104 81.5732 56.0731 81.5732 55.5583 81.1242C55.0091 80.6753 54.9748 80.7098 55.1807 81.2624Z" fill="#01DBCA"/>
<path d="M51.1307 82.2637C51.062 82.5055 50.9591 83.0235 50.8904 83.4034C50.8218 83.7833 50.4099 84.1632 49.9638 84.2668C49.4833 84.3704 49.0714 84.6467 48.9684 84.8885C48.7968 85.4756 49.7578 85.4065 50.2727 84.7848C50.5129 84.5086 50.9591 84.2668 51.268 84.2668C52.2633 84.2668 52.6408 83.6106 52.1947 82.6782C51.7828 81.7802 51.3709 81.6076 51.1307 82.2637Z" fill="#FF0000"/>
<path d="M56.9653 82.1947C56.8623 82.3674 56.931 82.54 57.1026 82.54C57.3085 82.54 57.4801 82.3674 57.4801 82.1947C57.4801 81.9875 57.4115 81.8493 57.3428 81.8493C57.2399 81.8493 57.0683 81.9875 56.9653 82.1947Z" fill="#FF540B"/>
<path d="M58.1666 82.54C57.8921 82.7127 57.7891 82.9544 57.8921 83.058C58.0294 83.1962 58.4755 83.058 58.9217 82.7472C59.7454 82.1601 59.0933 81.9529 58.1666 82.54Z" fill="#FF540B"/>
<path d="M56.7936 83.507C56.7936 83.8869 58.0635 84.6122 58.3038 84.3704C58.5784 84.0596 57.8233 83.2307 57.2741 83.2307C56.9996 83.2307 56.7936 83.3343 56.7936 83.507Z" fill="#FF540B"/>
<path d="M59.1963 83.5762C59.1963 83.7489 59.4022 83.9216 59.6424 83.9561C59.8484 83.9561 59.7111 84.1288 59.2992 84.336C58.853 84.5432 58.5098 84.854 58.5098 85.0613C58.5098 85.2339 58.1323 85.2685 57.6518 85.1649C56.6908 84.9231 56.5535 85.1303 57.2399 85.7865C57.6175 86.1664 57.9607 86.0282 59.2992 84.9576C60.1573 84.2324 60.7751 83.5762 60.6721 83.4381C60.3289 83.0927 59.1963 83.1963 59.1963 83.5762Z" fill="#FF540B"/>
<path d="M47.0808 86.4427C46.1198 87.3061 45.8109 87.7896 45.8109 88.6185C45.8109 89.7582 46.3944 90.2762 47.1838 89.7927C47.5613 89.5509 47.5613 89.4128 47.1838 88.9293C46.8406 88.5149 46.8406 88.204 47.1151 87.5479C47.527 86.6499 47.8016 86.5463 48.6939 86.8917C49.3804 87.168 49.4147 88.0659 48.7283 88.0659C48.1105 88.0659 48.1105 88.0314 48.591 89.4128C48.7969 89.9999 49.1744 90.4834 49.449 90.4834C50.1011 90.4834 50.0668 89.8272 49.4147 89.5855C48.6939 89.2747 48.7626 88.8602 49.7922 87.9968C50.5816 87.2716 50.6159 87.2025 50.0325 86.7881C49.552 86.4082 49.6893 86.3737 51.1308 86.5118C52.3663 86.6499 52.6409 86.6154 52.1604 86.3737C51.7829 86.201 51.0278 86.0283 50.513 86.0283C49.9638 85.9938 49.2774 85.8556 48.9685 85.683C48.5223 85.4412 48.0418 85.6484 47.0808 86.4427Z" fill="#FF0000"/>
<path d="M53.2585 86.9607C52.9152 87.306 52.675 87.7204 52.675 87.824C52.675 88.2039 54.0135 87.2715 54.1851 86.788C54.4597 86.1318 53.9106 86.2354 53.2585 86.9607Z" fill="#FF0000"/>
<path d="M56.0387 86.5808C56.2447 86.6498 56.6565 86.6498 56.8968 86.5808C57.1027 86.4772 56.9311 86.4081 56.4506 86.4081C55.9701 86.4081 55.7985 86.4772 56.0387 86.5808Z" fill="#FF0000"/>
<path d="M54.5971 87.5477C54.4942 87.824 54.1853 88.0657 53.8764 88.0657C53.6018 88.0657 53.3616 88.2039 53.3616 88.3766C53.3616 88.5492 53.0183 88.8255 52.6065 88.9637C52.1603 89.0673 50.9934 89.8961 49.998 90.725C49.0027 91.5884 48.076 92.1755 47.9387 92.0719C47.8358 91.9337 47.9387 91.692 48.179 91.5538C48.5565 91.3121 48.5565 91.2085 48.179 91.0703C47.7671 90.9322 47.8015 90.8286 48.2133 90.5178C48.6595 90.207 48.6595 90.1379 48.179 90.1379C47.8701 90.1379 47.4239 90.3451 47.218 90.6214C46.8748 91.0013 46.9434 91.1394 47.4239 91.243C47.8701 91.3121 47.7671 91.4848 46.8748 91.8992C46.2227 92.2446 45.8794 92.5554 46.1197 92.6935C46.8748 93.177 46.4972 93.6605 45.5706 93.4533C44.8498 93.2806 44.7468 93.3152 45.1244 93.5914C45.5706 93.9023 45.5706 93.9713 45.1244 94.2822C44.6782 94.593 44.6782 94.6275 45.1244 94.593C45.7422 94.593 47.8701 92.9007 47.2866 92.9007C47.0464 92.9007 46.8405 92.728 46.8405 92.5208C46.8405 92.2791 47.1837 92.21 47.6985 92.3482C48.3506 92.5208 49.0027 92.2446 50.5472 91.1049C51.6798 90.276 52.9154 89.3781 53.3616 89.1018C53.7734 88.8255 54.3226 88.3766 54.5971 88.1348C54.8374 87.9276 55.1806 87.7204 55.3865 87.7204C55.5925 87.7204 55.7641 87.5477 55.7641 87.375C55.7641 86.8225 54.8374 86.9606 54.5971 87.5477Z" fill="#FF0000"/>
<path d="M50.6845 88.1694C49.8264 89.1019 49.7235 89.4473 50.3756 89.4473C50.8561 89.4473 52.3319 88.0313 52.3319 87.6169C52.3319 87.0988 51.3709 87.4097 50.6845 88.1694Z" fill="#FF0000"/>
<path d="M43.8888 89.0675C43.271 89.8272 43.2366 90.0345 43.6485 90.4144C43.9917 90.7597 44.3349 90.7942 45.0557 90.518C45.7421 90.2417 45.8108 90.1726 45.2959 90.1726C43.5112 90.2762 43.1337 89.7236 44.6438 89.2056C45.3646 88.9639 45.4332 88.8257 45.09 88.5149C44.7125 88.2386 44.4379 88.3768 43.8888 89.0675Z" fill="#01DFC6"/>
<path d="M43.7514 91.9682C43.7514 92.5553 43.923 92.9006 44.2662 92.9006C44.9183 92.9006 44.9183 92.5898 44.2662 91.7264C43.7857 91.0702 43.7514 91.0702 43.7514 91.9682Z" fill="#FF0000"/>
<path d="M44.9528 91.5538C44.5409 92.21 45.1244 92.3481 45.7078 91.761C46.257 91.2084 46.257 91.1739 45.7422 91.1739C45.4333 91.1739 45.0557 91.3466 44.9528 91.5538Z" fill="#FF0000"/>
<path d="M38.9465 93.2116C38.9465 93.6605 39.7703 94.2822 40.388 94.2822C41.1088 94.2822 41.2118 95.0765 40.5596 95.7327C40.1478 96.1125 40.1821 96.2852 40.6283 96.6996C41.1088 97.1486 41.1088 97.2177 40.5596 97.3213C40.2508 97.3904 39.9762 97.7012 39.9762 97.9775C39.9762 98.461 40.0448 98.461 40.594 97.9775C40.9372 97.6321 41.3834 97.3904 41.5893 97.3904C41.7952 97.3904 42.0698 97.1486 42.1728 96.8378C42.3101 96.527 42.2414 96.3888 42.0012 96.5615C41.6236 96.7687 41.0058 96.1471 41.0058 95.56C41.0058 95.111 41.9325 95.2837 42.3787 95.8363C42.6189 96.1125 42.9622 96.3543 43.1338 96.3543C43.3397 96.3543 43.3397 96.1471 43.0994 95.8708C42.7906 95.4909 42.8249 95.2837 43.374 94.9038C44.335 94.2131 43.9232 93.9023 42.3444 94.144C41.2804 94.3167 41.0402 94.2476 40.8685 93.6605C40.7313 93.2461 40.3537 92.9698 39.8046 92.9698C39.3241 92.9698 38.9465 93.1079 38.9465 93.2116Z" fill="#EF1717"/>
<path d="M43.923 95.3182C43.82 95.5254 43.9573 95.56 44.2319 95.4564C44.8497 95.2146 44.9526 94.9729 44.4721 94.9729C44.2662 94.9729 44.0259 95.111 43.923 95.3182Z" fill="#FFF7F7"/>
<path d="M34.2443 97.7702C33.0088 98.9099 32.8028 99.4625 33.6266 99.4625C33.9011 99.4625 34.1414 99.7042 34.1414 100.015C34.1414 100.326 34.3816 100.499 34.7248 100.429C35.5829 100.257 35.6859 99.4625 34.8621 99.4625C33.9011 99.4625 33.9698 98.9444 34.9994 98.012C35.8575 97.2867 36.0977 96.6996 35.6172 96.6996C35.4456 96.6996 34.8278 97.1831 34.2443 97.7702Z" fill="#01E4C2"/>
<path d="M35.3426 98.7718C35.2396 98.9445 35.3082 99.1172 35.4799 99.1172C35.6858 99.1172 35.8574 98.9445 35.8574 98.7718C35.8574 98.5646 35.7887 98.4265 35.7201 98.4265C35.6171 98.4265 35.4455 98.5646 35.3426 98.7718Z" fill="#01E4C3"/>
<path d="M36.3724 99.117C36.2695 99.2897 36.4067 99.4624 36.7156 99.4624C37.0245 99.4624 37.1618 99.2897 37.0589 99.117C36.9559 98.9098 36.7843 98.7717 36.7156 98.7717C36.647 98.7717 36.4754 98.9098 36.3724 99.117Z" fill="#01E4C3"/>
<path d="M37.9169 99.117C37.9169 99.2897 38.0885 99.4624 38.2601 99.4624C38.466 99.4624 38.6033 99.2897 38.6033 99.117C38.6033 98.9098 38.466 98.7717 38.2601 98.7717C38.0885 98.7717 37.9169 98.9098 37.9169 99.117Z" fill="#01E4C3"/>
<path d="M35.4801 100.775C35.0339 101.12 34.3474 101.535 33.9699 101.673C33.5924 101.845 33.4551 102.018 33.6953 102.122C33.9013 102.191 34.8279 101.776 35.7546 101.224C36.647 100.637 37.1618 100.153 36.8529 100.153C36.544 100.153 35.9262 100.429 35.4801 100.775Z" fill="#01E6C1"/>
<path d="M31.5675 102.571C31.4645 102.743 31.1556 102.813 30.881 102.709C30.5378 102.571 30.4692 102.709 30.6065 103.227C30.7094 103.641 30.9497 104.056 31.1213 104.159C31.5331 104.401 32.4598 103.607 32.2196 103.227C32.1166 103.054 32.2882 103.02 32.5628 103.123C32.8717 103.227 33.1119 103.192 33.1119 102.985C33.1119 102.813 32.8717 102.536 32.5628 102.433C31.8764 102.156 31.8077 102.156 31.5675 102.571Z" fill="#01E6C1"/>
<path d="M62.4567 103.814C56.3474 105.921 46.5314 106.439 39.7014 105.023L36.1663 104.298L34.6218 105.023C33.7981 105.437 33.0087 105.886 32.9401 106.059C32.6655 106.473 36.8871 107.717 41.1773 108.476C48.4878 109.754 56.9309 109.167 63.349 106.922C66.5409 105.817 66.7125 105.61 65.9231 104.125C65.5456 103.469 65.1681 102.951 65.0651 102.951C64.9621 102.985 63.7952 103.365 62.4567 103.814Z" fill="#30424B"/>
<path d="M25.4581 107.889C25.3208 108.235 25.4237 108.338 25.767 108.2C26.0072 108.096 26.2475 107.889 26.2475 107.717C26.2475 107.233 25.664 107.371 25.4581 107.889Z" fill="#01E8BF"/>
<path d="M22.4719 108.442C22.4719 108.614 22.6435 108.787 22.8151 108.787C23.021 108.787 23.1583 109.029 23.1583 109.305C23.1583 109.581 23.021 109.823 22.8151 109.823C22.6435 109.823 22.4719 109.65 22.4719 109.478C22.4719 109.27 22.2317 109.132 21.9571 109.132C21.1677 109.132 21.3393 109.719 22.1973 109.927C23.1583 110.203 25.1833 108.856 24.4626 108.407C23.8448 107.993 22.4719 108.027 22.4719 108.442Z" fill="#01E9BE"/>
<path d="M16.4657 113.829C15.9166 114.313 15.1958 114.865 14.9213 115.003C14.6467 115.176 14.4751 115.383 14.5781 115.487C14.681 115.556 15.6763 115.038 16.809 114.278C18.1475 113.415 18.628 112.931 18.1818 112.931C17.8043 112.931 17.0492 113.346 16.4657 113.829Z" fill="#FFF7F7"/>
<path d="M75.3274 123.637C75.3274 124.017 75.5333 124.432 75.8079 124.535C76.1854 124.674 76.2541 124.95 75.9795 125.606C75.4647 126.953 75.602 127.264 76.357 126.297C76.7689 125.813 77.0435 124.915 77.0435 124.19C77.0435 123.085 76.9405 122.947 76.1854 122.947C75.5676 122.947 75.3274 123.119 75.3274 123.637Z" fill="#FFF7F7"/>
<path d="M3.90398 124.294C2.08493 126.158 2.87433 127.989 6.1692 129.508C8.26282 130.475 8.74333 130.993 8.74333 132.306C8.74333 133.998 4.79634 134.62 4.10991 133.031C3.9383 132.617 3.59508 132.271 3.35483 132.271C2.56544 132.271 2.56544 132.927 3.32051 133.825C5.00227 135.794 8.98358 135.172 9.77297 132.824C10.3564 130.959 9.70433 129.923 7.16453 128.68C5.96327 128.127 4.83066 127.298 4.52177 126.78C4.04126 125.951 4.04126 125.813 4.55609 125.122C5.37981 124.052 6.82132 123.776 7.88528 124.466C8.33147 124.777 8.98358 125.019 9.32679 125.019C9.84162 124.984 9.77297 124.846 8.98358 124.155C7.54207 122.878 5.24252 122.947 3.90398 124.294Z" fill="#FF8F0B"/>
<path d="M35.5486 123.879C34.1414 124.57 33.1461 126.607 33.1118 128.783C33.1118 133.376 35.8918 135.863 39.7015 134.654L41.1773 134.171V131.753V129.336H39.5642C37.6765 129.336 37.3333 129.923 39.0151 130.199C40.0447 130.372 40.1477 130.51 40.2507 131.684C40.3193 132.409 40.182 133.238 39.9418 133.514C39.4956 134.067 37.1617 134.171 36.1664 133.653C33.9698 132.444 33.7982 126.538 35.9604 124.742C37.0244 123.844 38.4316 123.879 39.5985 124.846C40.7655 125.848 41.2117 125.813 40.8684 124.742C40.4223 123.326 37.6079 122.877 35.5486 123.879Z" fill="#FF8F0B"/>
<path d="M81.4365 123.845C80.8874 124.121 80.4755 124.57 80.4755 124.846C80.4755 125.571 81.0247 125.502 81.8827 124.639C82.4319 124.086 82.8437 123.948 83.6674 124.121C86.6534 124.742 86.2416 126.78 82.4662 129.612C81.0933 130.683 80.1323 132.409 80.1323 133.791V134.689H83.5645C86.3789 134.689 86.9966 134.585 86.9966 134.171C86.9966 133.756 86.4818 133.653 84.2852 133.653C82.7751 133.653 81.4365 133.515 81.3336 133.307C80.956 132.686 82.2259 130.89 84.148 129.439C86.3445 127.782 87.0996 126.4 86.5848 125.019C86.0356 123.361 83.3586 122.774 81.4365 123.845Z" fill="#FF8F0B"/>
<path d="M91.5958 123.948C90.1886 124.812 89.5708 126.435 89.5708 129.163C89.6051 132.997 91.4585 135.379 93.9983 134.896C96.1606 134.482 97.2932 132.478 97.2932 129.129C97.2932 126.676 96.6754 125.053 95.4055 124.052C94.2385 123.119 93.003 123.085 91.5958 123.948ZM94.2729 124.294C97.0186 125.33 96.8127 133.411 94.0669 133.929C91.9047 134.378 90.7721 132.686 90.7721 128.99C90.7721 126.607 91.3555 124.984 92.3852 124.363C93.1402 123.914 93.2775 123.914 94.2729 124.294Z" fill="#FF8F0B"/>
<path d="M13.6171 128.783C12.4502 131.615 11.4892 134.136 11.4892 134.309C11.4892 135.207 12.2443 134.551 12.8621 133.135L13.5142 131.581H16.1226H18.7311L19.3832 133.135C19.7607 133.998 20.2755 134.689 20.5844 134.689C20.859 134.689 21.0992 134.585 21.0992 134.413C21.0649 134.274 20.1726 131.822 19.1086 128.99C16.4658 121.98 16.4315 121.98 13.6171 128.783ZM17.3582 127.678C17.8044 128.956 18.2506 130.13 18.2849 130.268C18.3535 130.406 17.4612 130.545 16.3285 130.545C15.0586 130.545 14.2349 130.406 14.2349 130.165C14.2349 129.957 14.5438 129.094 14.887 128.196C15.2646 127.298 15.6421 126.297 15.7451 125.951C16.0883 124.881 16.5002 125.33 17.3582 127.678Z" fill="#FF8F0B"/>
<path d="M22.8841 129.059C22.9527 132.997 23.09 134.482 23.4332 134.62C23.7421 134.723 23.8451 133.756 23.8451 130.579C23.8451 128.3 23.948 126.366 24.1196 126.297C24.2569 126.193 25.5955 128.058 27.1056 130.406C30.881 136.312 31.0526 136.277 31.0526 129.163C31.0526 124.466 30.984 123.637 30.5378 123.637C30.1259 123.637 30.023 124.328 30.023 127.782C30.023 130.061 29.8857 131.926 29.7484 131.926C29.5768 131.926 28.2382 130.061 26.7967 127.782C24.909 124.846 23.948 123.637 23.4675 123.637C22.8154 123.637 22.8154 123.879 22.8841 129.059Z" fill="#FF8F0B"/>
<path d="M43.683 126.815C43.5114 132.099 43.7173 134.689 44.2665 134.689C44.6783 134.689 44.7813 134.171 44.7813 132.271V129.854H45.8109C46.8406 129.854 47.4241 130.544 48.8999 133.445C49.4147 134.447 50.1355 134.93 50.513 134.585C50.7532 134.309 48.9685 130.683 48.3164 130.165C47.9732 129.854 48.0762 129.577 48.8999 128.818C50.1698 127.609 50.3414 125.571 49.2431 124.397C48.6253 123.741 48.1448 123.637 46.1542 123.637H43.786L43.683 126.815ZM47.6986 124.742C48.7969 125.226 49.1745 126.573 48.5223 127.747C48.1105 128.472 47.7329 128.68 46.3944 128.749L44.7813 128.852V126.815C44.7813 125.709 44.8843 124.673 45.0215 124.57C45.3648 124.19 46.7033 124.294 47.6986 124.742Z" fill="#FF8F0B"/>
<path d="M56.1415 124.225C55.3521 125.779 51.9886 134.447 52.1259 134.62C52.4691 134.931 53.3272 133.929 53.7047 132.755L54.1166 131.581H56.7937C59.6767 131.581 59.5051 131.442 60.3631 134.067C60.569 134.758 61.5987 134.931 61.5987 134.274C61.5987 134.067 61.2211 132.927 60.775 131.788C60.3288 130.614 59.4707 128.334 58.8529 126.642C57.9949 124.432 57.5487 123.637 57.1025 123.637C56.7593 123.637 56.3475 123.914 56.1415 124.225ZM57.9263 127.713C58.4411 128.99 58.8529 130.165 58.8529 130.303C58.8529 130.441 57.9263 130.545 56.7937 130.545C54.7687 130.545 54.2539 130.199 55.0432 129.301C55.1805 129.129 55.5924 128.162 55.9699 127.16C56.3131 126.193 56.6907 125.364 56.7937 125.364C56.9309 125.364 57.4458 126.4 57.9263 127.713Z" fill="#FF8F0B"/>
<path d="M63.5893 124.743C63.4863 125.364 63.452 127.816 63.452 130.199C63.4863 133.584 63.5893 134.516 63.9669 134.516C64.3444 134.516 64.413 133.687 64.3787 130.579C64.3101 127.747 64.413 126.711 64.7219 126.815C64.9279 126.884 65.6486 128.3 66.335 129.957C67.3647 132.513 67.6736 132.962 68.2571 132.893C68.8062 132.824 69.2524 132.064 70.1791 129.578C70.8312 127.851 71.4833 126.4 71.6206 126.4C71.7922 126.4 71.8951 128.265 71.8951 130.579C71.8951 133.756 71.9981 134.723 72.3413 134.62C72.6502 134.482 72.7875 132.997 72.8561 129.06C72.9248 123.914 72.9248 123.637 72.2727 123.637C71.7579 123.637 71.3117 124.432 70.1447 127.436C69.321 129.543 68.4973 131.201 68.3257 131.132C68.1541 131.063 67.296 129.405 66.438 127.436C64.7219 123.568 63.8639 122.74 63.5893 124.743Z" fill="#FF8F0B"/>
<defs>
<linearGradient id="paint0_linear_1_24" x1="50.0014" y1="120.356" x2="50.0014" y2="-0.000106812" gradientUnits="userSpaceOnUse">
<stop offset="0.0625" stop-color="#00EBBD"/>
<stop offset="0.727668" stop-color="#00C5DD"/>
</linearGradient>
<linearGradient id="paint1_linear_1_24" x1="18.0103" y1="39.7161" x2="18.0103" y2="10.7363" gradientUnits="userSpaceOnUse">
<stop stop-color="#95B416"/>
<stop offset="1" stop-color="#D3D630"/>
</linearGradient>
<linearGradient id="paint2_linear_1_24" x1="85.1549" y1="112.788" x2="85.1549" y2="78.7397" gradientUnits="userSpaceOnUse">
<stop stop-color="#EFD765" stop-opacity="0"/>
<stop offset="0.973958" stop-color="#E6BB23"/>
</linearGradient>
</defs>
</svg>
