<svg width="250" height="255" viewBox="0 0 250 255" fill="none" xmlns="http://www.w3.org/2000/svg">
<path fill-rule="evenodd" clip-rule="evenodd" d="M5.54649e-05 127.518C5.54649e-05 57.2051 55.9652 0.203613 125 0.203613C194.035 0.203613 250 57.2051 250 127.518C250 197.832 194.035 254.833 125 254.833C95.3489 254.833 68.0931 244.316 46.6628 226.741L46.6396 226.717C32.0668 214.797 20.3097 199.693 12.2371 182.523C4.16442 165.353 -0.0175672 146.556 5.54649e-05 127.518ZM78.9768 226.563C92.9303 233.302 108.535 237.068 125 237.068C143.285 237.079 161.271 232.337 177.256 223.294C193.241 214.25 206.696 201.202 216.349 185.384C210.747 176.892 204.016 169.232 196.349 162.622C166.047 195.807 123.442 219.564 78.9768 226.563ZM182.035 152.188C149.419 187.019 102 209.924 55.2326 210.895C47.9675 204.583 41.5551 197.319 36.1628 189.293C71.7675 186.45 104.767 168.484 126.884 139.527L129.233 136.448C147.864 137.005 166.042 142.429 182.023 152.2M129.988 118.707C167.326 119.891 202.128 137.858 225.14 167.56C230.31 154.133 232.82 139.795 232.523 125.375L226.291 118.92L226.268 118.897C197.349 89.4549 158.444 72.4317 117.57 71.3341C117.756 87.9342 122.025 104.222 129.988 118.707ZM118.942 53.6048C159.082 54.8906 197.601 70.0285 228.186 96.5365C221.886 74.8168 209.135 55.6179 191.686 41.5787C174.238 27.5396 152.948 19.3495 130.744 18.1343L125.07 32.0027C122.227 38.9433 120.167 46.1905 118.93 53.6048M111.547 18.8212C100.438 20.2287 89.6163 23.4059 79.4768 28.2366C63.2539 69.8289 63.4081 116.192 79.907 157.671C92.7651 150.35 104.05 140.475 113.093 128.632L114.454 126.832C106.079 111.402 101.235 94.2448 100.283 76.6413C99.3307 59.0378 102.295 41.4426 108.954 25.1692L111.547 18.8212ZM64.0698 165.073C48.4975 126.401 45.7777 83.6007 56.3256 43.2064C44.1474 53.4753 34.347 66.3578 27.6251 80.9328C20.9033 95.5079 17.426 111.416 17.4419 127.518C17.4419 143.329 20.7326 158.358 26.6512 171.931C39.4195 171.876 52.0811 169.56 64.0698 165.085" fill="#00A7E1"/>
</svg>
